<svg xmlns="http://www.w3.org/2000/svg" width="480" height="340" font-family="Inter,Arial,sans-serif">
<rect width="480" height="340" fill="#f5f3ff" rx="12"/>
<rect x="10" y="10" width="42" height="23" rx="6" fill="#4f46e5"/>
<text x="31" y="25" fill="white" font-size="11" font-weight="700" text-anchor="middle">#13</text>
<rect x="50" y="50" width="380" height="265" rx="8" fill="white" stroke="#e0e7ff" stroke-width="1.5"/><text x="240" y="44" fill="#4f46e5" font-size="15" font-weight="700" text-anchor="middle">Trace d'un programme en pseudocode</text><rect x="70" y="60" width="340" height="30" rx="8" fill="#3b82f6"/><text x="240" y="79" fill="white" font-size="12" font-weight="600" text-anchor="middle">mettre x ← 4</text><rect x="70" y="96" width="340" height="30" rx="8" fill="#3b82f6"/><text x="240" y="115" fill="white" font-size="12" font-weight="600" text-anchor="middle">mettre y ← 3</text><rect x="70" y="132" width="340" height="30" rx="8" fill="#4f46e5"/><text x="240" y="151" fill="white" font-size="12" font-weight="600" text-anchor="middle">somme ← x + y</text><rect x="70" y="168" width="340" height="30" rx="8" fill="#4f46e5"/><text x="240" y="187" fill="white" font-size="12" font-weight="600" text-anchor="middle">produit ← x × y</text><rect x="70" y="204" width="340" height="30" rx="8" fill="#4f46e5"/><text x="240" y="223" fill="white" font-size="12" font-weight="600" text-anchor="middle">résultat ← somme + produit</text><rect x="70" y="240" width="340" height="30" rx="8" fill="#10b981"/><text x="240" y="259" fill="white" font-size="12" font-weight="600" text-anchor="middle">Dire résultat</text></svg>