<svg xmlns="http://www.w3.org/2000/svg" width="480" height="340" font-family="Inter,Arial,sans-serif">
<rect width="480" height="340" fill="#f5f3ff" rx="12"/>
<rect x="10" y="10" width="42" height="23" rx="6" fill="#4f46e5"/>
<text x="31" y="25" fill="white" font-size="11" font-weight="700" text-anchor="middle">#28</text>
<rect x="30" y="55" width="420" height="250" rx="8" fill="white" stroke="#e0e7ff" stroke-width="1.5"/><text x="240" y="47" fill="#4f46e5" font-size="15" font-weight="700" text-anchor="middle">Raisonnement logique — Pythagore</text><rect x="50" y="80" width="170" height="44" rx="8" fill="#ede9fe" stroke="#4f46e5"/><text x="135" y="107" fill="#4f46e5" font-size="12" font-weight="600" text-anchor="middle">(A) Rectangle en C</text><rect x="260" y="80" width="170" height="44" rx="8" fill="#fef9c3" stroke="#f59e0b"/><text x="345" y="107" fill="#b45309" font-size="12" font-weight="600" text-anchor="middle">(B) AB²=AC²+BC²</text><line x1="220" y1="102" x2="260" y2="102" stroke="#10b981" stroke-width="1.5"/><polygon points="260,102 252.0,106.0 252.0,98.0" fill="#10b981"/><text x="240" y="98" fill="#10b981" font-size="14" font-weight="700" text-anchor="middle">⟹</text><text x="240" y="118" fill="#10b981" font-size="10" font-weight="400" text-anchor="middle">Théorème</text><line x1="260" y1="125" x2="220" y2="125" stroke="#ef4444" stroke-width="1.5"/><polygon points="220,125 228.0,121.0 228.0,129.0" fill="#ef4444"/><text x="240" y="142" fill="#ef4444" font-size="10" font-weight="400" text-anchor="middle">Réciproque</text><rect x="50" y="185" width="170" height="44" rx="8" fill="#fee2e2" stroke="#ef4444"/><text x="135" y="212" fill="#ef4444" font-size="12" font-weight="600" text-anchor="middle">non-(B)</text><rect x="260" y="185" width="170" height="44" rx="8" fill="#dcfce7" stroke="#10b981"/><text x="345" y="212" fill="#15803d" font-size="12" font-weight="600" text-anchor="middle">non-(A)</text><line x1="220" y1="207" x2="260" y2="207" stroke="#6b7280" stroke-width="1.5"/><polygon points="260,207 252.0,211.0 252.0,203.0" fill="#6b7280"/><text x="240" y="232" fill="#6b7280" font-size="10" font-weight="400" text-anchor="middle">Contraposée</text>
</svg>