<svg xmlns="http://www.w3.org/2000/svg" width="480" height="340" font-family="Inter,Arial,sans-serif">
<rect width="480" height="340" fill="#f5f3ff" rx="12"/>
<rect x="10" y="10" width="42" height="23" rx="6" fill="#4f46e5"/>
<text x="31" y="25" fill="white" font-size="11" font-weight="700" text-anchor="middle">#48</text>
<rect x="40" y="60" width="400" height="220" rx="8" fill="white" stroke="#e0e7ff" stroke-width="1.5"/><text x="240" y="52" fill="#4f46e5" font-size="15" font-weight="700" text-anchor="middle">Translation — vecteur AB</text><circle cx="100" cy="185" r="4" fill="#4f46e5"/><text x="100" y="173" fill="#4f46e5" font-size="12" font-weight="700">A</text><circle cx="380" cy="185" r="4" fill="#10b981"/><text x="380" y="173" fill="#10b981" font-size="12" font-weight="700">B</text><line x1="104" y1="185" x2="374" y2="185" stroke="#f59e0b" stroke-width="1.5"/><polygon points="374,185 366.0,189.0 366.0,181.0" fill="#f59e0b"/><text x="240" y="167" fill="#f59e0b" font-size="13" font-weight="700" text-anchor="middle">→ vecteur AB</text><line x1="100" y1="100" x2="100" y2="270" stroke="#e0e7ff" stroke-width="1" stroke-dasharray="4 4"/><line x1="380" y1="100" x2="380" y2="270" stroke="#e0e7ff" stroke-width="1" stroke-dasharray="4 4"/><circle cx="160" cy="130" r="4" fill="#818cf8"/><text x="160" y="118" fill="#818cf8" font-size="12" font-weight="700">P</text><line x1="164" y1="130" x2="434" y2="130" stroke="#818cf8" stroke-width="1.5"/><polygon points="434,130 426.0,134.0 426.0,126.0" fill="#818cf8"/><text x="310" y="120" fill="#818cf8" font-size="11" font-weight="600" text-anchor="start">PP' = AB</text><text x="240" y="310" fill="#6b7280" font-size="11" font-weight="400" text-anchor="middle">La translation de vecteur AB transforme tout point P en P'</text>
</svg>