<svg xmlns="http://www.w3.org/2000/svg" width="480" height="340" font-family="Inter,Arial,sans-serif">
<rect width="480" height="340" fill="#f5f3ff" rx="12"/>
<rect x="10" y="10" width="42" height="23" rx="6" fill="#4f46e5"/>
<text x="31" y="25" fill="white" font-size="11" font-weight="700" text-anchor="middle">#03</text>
<rect x="50" y="65" width="380" height="230" rx="8" fill="white" stroke="#e0e7ff" stroke-width="1.5"/><text x="240" y="57" fill="#4f46e5" font-size="15" font-weight="700" text-anchor="middle">B = (x+3)(x+5) — Modèle aire</text><rect x="140" y="80" width="160" height="30" rx="4" fill="#e0e7ff" stroke="none"/><text x="220" y="100" fill="#4f46e5" font-size="16" font-weight="700" text-anchor="middle">x</text><rect x="300" y="80" width="80" height="30" rx="4" fill="#fef3c7" stroke="none"/><text x="340" y="100" fill="#b45309" font-size="16" font-weight="700" text-anchor="middle">3</text><rect x="110" y="110" width="30" height="130" rx="4" fill="#e0e7ff" stroke="none"/><text x="125" y="180" fill="#4f46e5" font-size="16" font-weight="700" text-anchor="middle">x</text><rect x="140" y="110" width="160" height="130" rx="4" fill="#ede9fe" stroke="#4f46e5"/><text x="220" y="180" fill="#4f46e5" font-size="20" font-weight="700" text-anchor="middle">x²</text><rect x="300" y="110" width="80" height="130" rx="4" fill="#fef9c3" stroke="#f59e0b"/><text x="340" y="180" fill="#b45309" font-size="18" font-weight="700" text-anchor="middle">3x</text><rect x="110" y="240" width="30" height="50" rx="4" fill="#dcfce7" stroke="none"/><text x="125" y="270" fill="#15803d" font-size="16" font-weight="700" text-anchor="middle">5</text><rect x="140" y="240" width="160" height="50" rx="4" fill="#dcfce7" stroke="#10b981"/><text x="220" y="270" fill="#15803d" font-size="18" font-weight="700" text-anchor="middle">5x</text><rect x="300" y="240" width="80" height="50" rx="4" fill="#fef3c7" stroke="#f59e0b"/><text x="340" y="270" fill="#b45309" font-size="16" font-weight="700" text-anchor="middle">15</text></svg>