<svg xmlns="http://www.w3.org/2000/svg" width="480" height="340" font-family="Inter,Arial,sans-serif">
<rect width="480" height="340" fill="#f5f3ff" rx="12"/>
<rect x="10" y="10" width="42" height="23" rx="6" fill="#4f46e5"/>
<text x="31" y="25" fill="white" font-size="11" font-weight="700" text-anchor="middle">#44</text>
<rect x="50" y="55" width="380" height="250" rx="8" fill="white" stroke="#e0e7ff" stroke-width="1.5"/><text x="240" y="47" fill="#4f46e5" font-size="15" font-weight="700" text-anchor="middle">Répartition des élèves — 30 élèves</text><path d="M 230,175 L 320,175 A 90,90 0 0,1 157,227 Z" fill="#ede9fe" stroke="#4f46e5" stroke-width="1"/><path d="M 230,175 L 157,227 A 90,90 0 0,1 220,85 Z" fill="#dcfce7" stroke="#10b981" stroke-width="1"/><path d="M 230,175 L 220,85 A 90,90 0 0,1 320,175 Z" fill="#fef9c3" stroke="#f59e0b" stroke-width="1"/><rect x="330" y="130" width="20" height="14" rx="2" fill="#ede9fe" stroke="#4f46e5"/><text x="355" y="143" fill="#4f46e5" font-size="11" font-weight="400" text-anchor="start">Musique 2/5</text><rect x="330" y="154" width="20" height="14" rx="2" fill="#dcfce7" stroke="#10b981"/><text x="355" y="167" fill="#10b981" font-size="11" font-weight="400" text-anchor="start">Sport 1/3</text><rect x="330" y="178" width="20" height="14" rx="2" fill="#fef9c3" stroke="#f59e0b"/><text x="355" y="191" fill="#b45309" font-size="11" font-weight="400" text-anchor="start">Rien ?</text>
</svg>