<svg xmlns="http://www.w3.org/2000/svg" width="480" height="340" font-family="Inter,Arial,sans-serif">
<rect width="480" height="340" fill="#f5f3ff" rx="12"/>
<rect x="10" y="10" width="42" height="23" rx="6" fill="#4f46e5"/>
<text x="31" y="25" fill="white" font-size="11" font-weight="700" text-anchor="middle">#97</text>
<rect x="20" y="44" width="440" height="278" rx="8" fill="white" stroke="#e0e7ff" stroke-width="1.5"/><text x="240" y="38" fill="#4f46e5" font-size="15" font-weight="700" text-anchor="middle">Carrés des entiers de 0 à 12</text><rect x="20" y="55" width="440" height="24" rx="4" fill="#4f46e5" stroke="none"/><text x="240" y="67" fill="white" font-size="11" font-weight="700" text-anchor="middle">n</text><rect x="20" y="81" width="440" height="26" rx="0" fill="white" stroke="#e0e7ff"/><text x="90" y="98" fill="#4f46e5" font-size="13" font-weight="700" text-anchor="middle">0</text><text x="250" y="98" fill="#1e1b4b" font-size="12" font-weight="600" text-anchor="middle">0² = 0</text><text x="390" y="98" fill="#10b981" font-size="13" font-weight="700" text-anchor="middle">0</text><rect x="20" y="109" width="440" height="26" rx="0" fill="#f5f3ff" stroke="#e0e7ff"/><text x="90" y="126" fill="#4f46e5" font-size="13" font-weight="700" text-anchor="middle">1</text><text x="250" y="126" fill="#1e1b4b" font-size="12" font-weight="600" text-anchor="middle">1² = 1</text><text x="390" y="126" fill="#10b981" font-size="13" font-weight="700" text-anchor="middle">1</text><rect x="20" y="137" width="440" height="26" rx="0" fill="white" stroke="#e0e7ff"/><text x="90" y="154" fill="#4f46e5" font-size="13" font-weight="700" text-anchor="middle">2</text><text x="250" y="154" fill="#1e1b4b" font-size="12" font-weight="600" text-anchor="middle">2² = 4</text><text x="390" y="154" fill="#10b981" font-size="13" font-weight="700" text-anchor="middle">4</text><rect x="20" y="165" width="440" height="26" rx="0" fill="#f5f3ff" stroke="#e0e7ff"/><text x="90" y="182" fill="#4f46e5" font-size="13" font-weight="700" text-anchor="middle">3</text><text x="250" y="182" fill="#1e1b4b" font-size="12" font-weight="600" text-anchor="middle">3² = 9</text><text x="390" y="182" fill="#10b981" font-size="13" font-weight="700" text-anchor="middle">9</text><rect x="20" y="193" width="440" height="26" rx="0" fill="white" stroke="#e0e7ff"/><text x="90" y="210" fill="#4f46e5" font-size="13" font-weight="700" text-anchor="middle">4</text><text x="250" y="210" fill="#1e1b4b" font-size="12" font-weight="600" text-anchor="middle">4² = 16</text><text x="390" y="210" fill="#10b981" font-size="13" font-weight="700" text-anchor="middle">16</text><rect x="20" y="221" width="440" height="26" rx="0" fill="#f5f3ff" stroke="#e0e7ff"/><text x="90" y="238" fill="#4f46e5" font-size="13" font-weight="700" text-anchor="middle">5</text><text x="250" y="238" fill="#1e1b4b" font-size="12" font-weight="600" text-anchor="middle">5² = 25</text><text x="390" y="238" fill="#10b981" font-size="13" font-weight="700" text-anchor="middle">25</text><rect x="20" y="249" width="440" height="26" rx="0" fill="white" stroke="#e0e7ff"/><text x="90" y="266" fill="#4f46e5" font-size="13" font-weight="700" text-anchor="middle">6</text><text x="250" y="266" fill="#1e1b4b" font-size="12" font-weight="600" text-anchor="middle">6² = 36</text><text x="390" y="266" fill="#10b981" font-size="13" font-weight="700" text-anchor="middle">36</text><rect x="20" y="277" width="440" height="26" rx="0" fill="#f5f3ff" stroke="#e0e7ff"/><text x="90" y="294" fill="#4f46e5" font-size="13" font-weight="700" text-anchor="middle">7</text><text x="250" y="294" fill="#1e1b4b" font-size="12" font-weight="600" text-anchor="middle">7² = 49</text><text x="390" y="294" fill="#10b981" font-size="13" font-weight="700" text-anchor="middle">49</text><rect x="20" y="305" width="440" height="26" rx="0" fill="white" stroke="#e0e7ff"/><text x="90" y="322" fill="#4f46e5" font-size="13" font-weight="700" text-anchor="middle">8</text><text x="250" y="322" fill="#1e1b4b" font-size="12" font-weight="600" text-anchor="middle">8² = 64</text><text x="390" y="322" fill="#10b981" font-size="13" font-weight="700" text-anchor="middle">64</text><rect x="20" y="333" width="440" height="26" rx="0" fill="#f5f3ff" stroke="#e0e7ff"/><text x="90" y="350" fill="#4f46e5" font-size="13" font-weight="700" text-anchor="middle">9</text><text x="250" y="350" fill="#1e1b4b" font-size="12" font-weight="600" text-anchor="middle">9² = 81</text><text x="390" y="350" fill="#10b981" font-size="13" font-weight="700" text-anchor="middle">81</text><rect x="20" y="361" width="440" height="26" rx="0" fill="white" stroke="#e0e7ff"/><text x="90" y="378" fill="#4f46e5" font-size="13" font-weight="700" text-anchor="middle">10</text><text x="250" y="378" fill="#1e1b4b" font-size="12" font-weight="600" text-anchor="middle">10² = 100</text><text x="390" y="378" fill="#10b981" font-size="13" font-weight="700" text-anchor="middle">100</text><rect x="20" y="389" width="440" height="26" rx="0" fill="#f5f3ff" stroke="#e0e7ff"/><text x="90" y="406" fill="#4f46e5" font-size="13" font-weight="700" text-anchor="middle">11</text><text x="250" y="406" fill="#1e1b4b" font-size="12" font-weight="600" text-anchor="middle">11² = 121</text><text x="390" y="406" fill="#10b981" font-size="13" font-weight="700" text-anchor="middle">121</text><rect x="20" y="417" width="440" height="26" rx="0" fill="white" stroke="#e0e7ff"/><text x="90" y="434" fill="#4f46e5" font-size="13" font-weight="700" text-anchor="middle">12</text><text x="250" y="434" fill="#1e1b4b" font-size="12" font-weight="600" text-anchor="middle">12² = 144</text><text x="390" y="434" fill="#10b981" font-size="13" font-weight="700" text-anchor="middle">144</text>
</svg>