<svg xmlns="http://www.w3.org/2000/svg" width="480" height="340" font-family="Inter,Arial,sans-serif">
<rect width="480" height="340" fill="#f5f3ff" rx="12"/>
<rect x="10" y="10" width="42" height="23" rx="6" fill="#4f46e5"/>
<text x="31" y="25" fill="white" font-size="11" font-weight="700" text-anchor="middle">#56</text>
<rect x="30" y="65" width="420" height="200" rx="8" fill="white" stroke="#e0e7ff" stroke-width="1.5"/><text x="240" y="57" fill="#4f46e5" font-size="15" font-weight="700" text-anchor="middle">Droite graduée</text><line x1="50" y1="175" x2="450" y2="175" stroke="#1e1b4b" stroke-width="2"/><line x1="50" y1="168" x2="50" y2="182" stroke="#1e1b4b" stroke-width="1.5"/><text x="45" y="196" fill="#6b7280" font-size="11" font-weight="400" text-anchor="middle">-2</text><line x1="100" y1="168" x2="100" y2="182" stroke="#1e1b4b" stroke-width="1.5"/><text x="95" y="196" fill="#6b7280" font-size="11" font-weight="400" text-anchor="middle">-1</text><line x1="150" y1="168" x2="150" y2="182" stroke="#1e1b4b" stroke-width="1.5"/><text x="145" y="196" fill="#6b7280" font-size="11" font-weight="400" text-anchor="middle">0</text><line x1="200" y1="168" x2="200" y2="182" stroke="#1e1b4b" stroke-width="1.5"/><text x="195" y="196" fill="#6b7280" font-size="11" font-weight="400" text-anchor="middle">1</text><line x1="250" y1="168" x2="250" y2="182" stroke="#1e1b4b" stroke-width="1.5"/><text x="245" y="196" fill="#6b7280" font-size="11" font-weight="400" text-anchor="middle">2</text><line x1="300" y1="168" x2="300" y2="182" stroke="#1e1b4b" stroke-width="1.5"/><text x="295" y="196" fill="#6b7280" font-size="11" font-weight="400" text-anchor="middle">3</text><line x1="350" y1="168" x2="350" y2="182" stroke="#1e1b4b" stroke-width="1.5"/><text x="345" y="196" fill="#6b7280" font-size="11" font-weight="400" text-anchor="middle">4</text><line x1="400" y1="168" x2="400" y2="182" stroke="#1e1b4b" stroke-width="1.5"/><text x="395" y="196" fill="#6b7280" font-size="11" font-weight="400" text-anchor="middle">5</text><line x1="450" y1="168" x2="450" y2="182" stroke="#1e1b4b" stroke-width="1.5"/><text x="445" y="196" fill="#6b7280" font-size="11" font-weight="400" text-anchor="middle">6</text><circle cx="300" cy="175" r="7" fill="#ef4444" stroke="#ef4444" stroke-width="0"/><text x="300" y="160" fill="#ef4444" font-size="12" font-weight="700" text-anchor="middle">A(3)</text><circle cx="50" cy="175" r="7" fill="#3b82f6" stroke="#3b82f6" stroke-width="0"/><text x="46" y="160" fill="#3b82f6" font-size="12" font-weight="700" text-anchor="middle">B(−2)</text><circle cx="175" cy="175" r="7" fill="#10b981" stroke="#10b981" stroke-width="0"/><text x="175" y="160" fill="#10b981" font-size="12" font-weight="700" text-anchor="middle">C(?)</text></svg>