<svg xmlns="http://www.w3.org/2000/svg" width="480" height="340" font-family="Inter,Arial,sans-serif">
<rect width="480" height="340" fill="#f5f3ff" rx="12"/>
<rect x="10" y="10" width="42" height="23" rx="6" fill="#4f46e5"/>
<text x="31" y="25" fill="white" font-size="11" font-weight="700" text-anchor="middle">#41</text>
<rect x="50" y="55" width="380" height="250" rx="8" fill="white" stroke="#e0e7ff" stroke-width="1.5"/><text x="240" y="47" fill="#4f46e5" font-size="15" font-weight="700" text-anchor="middle">Triangle KLM dans un repère</text><line x1="60" y1="280" x2="440" y2="280" stroke="#6b7280" stroke-width="1.5"/><polygon points="440,280 432.0,284.0 432.0,276.0" fill="#6b7280"/><text x="443" y="284" fill="#6b7280" font-size="12" font-weight="400" text-anchor="start">x</text><line x1="80" y1="295" x2="80" y2="65" stroke="#6b7280" stroke-width="1.5"/><polygon points="80,65 84.0,73.0 76.0,73.0" fill="#6b7280"/><text x="84" y="62" fill="#6b7280" font-size="12" font-weight="400" text-anchor="start">y</text><line x1="80" y1="70" x2="80" y2="280" stroke="#e5e7eb" stroke-width="0.5"/><line x1="140" y1="70" x2="140" y2="280" stroke="#e5e7eb" stroke-width="0.5"/><line x1="200" y1="70" x2="200" y2="280" stroke="#e5e7eb" stroke-width="0.5"/><line x1="260" y1="70" x2="260" y2="280" stroke="#e5e7eb" stroke-width="0.5"/><line x1="320" y1="70" x2="320" y2="280" stroke="#e5e7eb" stroke-width="0.5"/><line x1="380" y1="70" x2="380" y2="280" stroke="#e5e7eb" stroke-width="0.5"/><line x1="440" y1="70" x2="440" y2="280" stroke="#e5e7eb" stroke-width="0.5"/><line x1="80" y1="280" x2="440" y2="280" stroke="#e5e7eb" stroke-width="0.5"/><line x1="80" y1="220" x2="440" y2="220" stroke="#e5e7eb" stroke-width="0.5"/><line x1="80" y1="160" x2="440" y2="160" stroke="#e5e7eb" stroke-width="0.5"/><line x1="80" y1="100" x2="440" y2="100" stroke="#e5e7eb" stroke-width="0.5"/><polygon points="80,280 440,280 440,40" fill="#ede9fe" stroke="#4f46e5" stroke-width="2"/><rect x="440" y="264" width="16" height="16" rx="0" fill="#4f46e5" stroke="none"/><circle cx="80" cy="280" r="4" fill="#4f46e5"/><text x="62" y="292" fill="#4f46e5" font-size="12" font-weight="700">K</text><circle cx="440" cy="280" r="4" fill="#4f46e5"/><text x="446" y="292" fill="#4f46e5" font-size="12" font-weight="700">L</text><circle cx="440" cy="40" r="4" fill="#4f46e5"/><text x="446" y="34" fill="#4f46e5" font-size="12" font-weight="700">M</text><text x="80" y="298" fill="#6b7280" font-size="10" font-weight="400" text-anchor="middle">0</text><text x="440" y="298" fill="#6b7280" font-size="10" font-weight="400" text-anchor="middle">6</text><text x="70" y="280" fill="#6b7280" font-size="10" font-weight="400" text-anchor="start">0</text><text x="70" y="40" fill="#6b7280" font-size="10" font-weight="400" text-anchor="start">4</text>
</svg>