<svg xmlns="http://www.w3.org/2000/svg" width="480" height="340" font-family="Inter,Arial,sans-serif">
<rect width="480" height="340" fill="#f5f3ff" rx="12"/>
<rect x="10" y="10" width="42" height="23" rx="6" fill="#4f46e5"/>
<text x="31" y="25" fill="white" font-size="11" font-weight="700" text-anchor="middle">#92</text>
<rect x="15" y="44" width="450" height="268" rx="8" fill="white" stroke="#e0e7ff" stroke-width="1.5"/><text x="240" y="38" fill="#4f46e5" font-size="15" font-weight="700" text-anchor="middle">Reconnaître les solides</text><polygon points="90,235 150,235 150,185 90,185" fill="#ede9fe" stroke="#4f46e5" stroke-width="1.5"/><line x1="90" y1="185" x2="120" y2="135" stroke="#4f46e5" stroke-width="1.5"/><line x1="150" y1="185" x2="120" y2="135" stroke="#4f46e5" stroke-width="1.5"/><line x1="90" y1="235" x2="120" y2="135" stroke="#4f46e5" stroke-width="1.5"/><line x1="150" y1="235" x2="120" y2="135" stroke="#4f46e5" stroke-width="1.5"/><text x="120" y="255" fill="#4f46e5" font-size="9" font-weight="700" text-anchor="middle">(A) Pyramide</text><path d="M 195,235 Q 235,255 275,235" fill="none" stroke="#10b981" stroke-width="1.5"/><path d="M 195,235 L 195,145 Q 235,165 275,145 L 275,235" fill="#dcfce7" stroke="#10b981" stroke-width="1.5"/><path d="M 195,145 Q 235,125 275,145" fill="none" stroke="#10b981" stroke-width="2"/><text x="235" y="255" fill="#10b981" font-size="9" font-weight="700" text-anchor="middle">(B) Cylindre</text><path d="M 310,235 Q 350,250 390,235 L 350,145 Z" fill="#fef9c3" stroke="#f59e0b" stroke-width="1.5"/><path d="M 310,235 Q 350,255 390,235" fill="none" stroke="#f59e0b" stroke-width="1.5"/><text x="350" y="255" fill="#f59e0b" font-size="9" font-weight="700" text-anchor="middle">(C) Cône</text><polygon points="410,235 455,235 432,185" fill="#fee2e2" stroke="#ef4444" stroke-width="1.5"/><line x1="432" y1="185" x2="422" y2="210" stroke="#ef4444" stroke-width="1" stroke-dasharray="3 3"/><text x="432" y="255" fill="#ef4444" font-size="9" font-weight="700" text-anchor="middle">(D) Tétraèdre</text>
</svg>