<svg xmlns="http://www.w3.org/2000/svg" width="480" height="340" font-family="Inter,Arial,sans-serif">
<rect width="480" height="340" fill="#f5f3ff" rx="12"/>
<rect x="10" y="10" width="42" height="23" rx="6" fill="#4f46e5"/>
<text x="31" y="25" fill="white" font-size="11" font-weight="700" text-anchor="middle">#46</text>
<rect x="40" y="50" width="400" height="265" rx="8" fill="white" stroke="#e0e7ff" stroke-width="1.5"/><text x="240" y="44" fill="#4f46e5" font-size="15" font-weight="700" text-anchor="middle">Milieux dans un repère</text><line x1="50" y1="290" x2="450" y2="290" stroke="#6b7280" stroke-width="1.5"/><polygon points="450,290 442.0,294.0 442.0,286.0" fill="#6b7280"/><text x="453" y="294" fill="#6b7280" font-size="12" font-weight="400" text-anchor="start">x</text><line x1="70" y1="305" x2="70" y2="55" stroke="#6b7280" stroke-width="1.5"/><polygon points="70,55 74.0,63.0 66.0,63.0" fill="#6b7280"/><text x="74" y="52" fill="#6b7280" font-size="12" font-weight="400" text-anchor="start">y</text><line x1="70" y1="60" x2="70" y2="290" stroke="#e5e7eb" stroke-width="0.5"/><line x1="130" y1="60" x2="130" y2="290" stroke="#e5e7eb" stroke-width="0.5"/><line x1="190" y1="60" x2="190" y2="290" stroke="#e5e7eb" stroke-width="0.5"/><line x1="250" y1="60" x2="250" y2="290" stroke="#e5e7eb" stroke-width="0.5"/><line x1="310" y1="60" x2="310" y2="290" stroke="#e5e7eb" stroke-width="0.5"/><line x1="370" y1="60" x2="370" y2="290" stroke="#e5e7eb" stroke-width="0.5"/><line x1="430" y1="60" x2="430" y2="290" stroke="#e5e7eb" stroke-width="0.5"/><line x1="70" y1="290" x2="450" y2="290" stroke="#e5e7eb" stroke-width="0.5"/><line x1="70" y1="230" x2="450" y2="230" stroke="#e5e7eb" stroke-width="0.5"/><line x1="70" y1="170" x2="450" y2="170" stroke="#e5e7eb" stroke-width="0.5"/><line x1="70" y1="110" x2="450" y2="110" stroke="#e5e7eb" stroke-width="0.5"/><line x1="70" y1="50" x2="450" y2="50" stroke="#e5e7eb" stroke-width="0.5"/><polygon points="70,50 70,290 430,290" fill="#ede9fe" stroke="#4f46e5" stroke-width="2"/><circle cx="70" cy="50" r="4" fill="#4f46e5"/><text x="54" y="50" fill="#4f46e5" font-size="12" font-weight="700">A</text><circle cx="70" cy="290" r="4" fill="#4f46e5"/><text x="54" y="298" fill="#4f46e5" font-size="12" font-weight="700">B</text><circle cx="430" cy="290" r="4" fill="#4f46e5"/><text x="436" y="298" fill="#4f46e5" font-size="12" font-weight="700">C</text><circle cx="250" cy="290" r="4" fill="#ef4444"/><text x="250" y="304" fill="#ef4444" font-size="12" font-weight="700">M</text><circle cx="250" cy="170" r="4" fill="#ef4444"/><text x="256" y="170" fill="#ef4444" font-size="12" font-weight="700">N</text><circle cx="70" cy="170" r="4" fill="#ef4444"/><text x="54" y="170" fill="#ef4444" font-size="12" font-weight="700">P</text><line x1="70" y1="50" x2="70" y2="290" stroke="none" stroke-width="2"/><text x="240" y="320" fill="#ef4444" font-size="12" font-weight="700" text-anchor="middle">M(3;0), N(3;2), P(0;2)</text>
</svg>