<svg xmlns="http://www.w3.org/2000/svg" width="480" height="340" font-family="Inter,Arial,sans-serif">
<rect width="480" height="340" fill="#f5f3ff" rx="12"/>
<rect x="10" y="10" width="42" height="23" rx="6" fill="#4f46e5"/>
<text x="31" y="25" fill="white" font-size="11" font-weight="700" text-anchor="middle">#43</text>
<rect x="50" y="50" width="380" height="265" rx="8" fill="white" stroke="#e0e7ff" stroke-width="1.5"/><text x="240" y="44" fill="#4f46e5" font-size="15" font-weight="700" text-anchor="middle">Trace d'un programme — compteur</text><rect x="50" y="60" width="380" height="30" rx="6" fill="#4f46e5" stroke="none"/><text x="100" y="76" fill="white" font-size="12" font-weight="700" text-anchor="middle">Instruction</text><text x="230" y="76" fill="white" font-size="12" font-weight="700" text-anchor="middle">Code</text><text x="360" y="76" fill="white" font-size="12" font-weight="700" text-anchor="middle">compteur</text><rect x="50" y="92" width="380" height="38" rx="0" fill="white" stroke="#e0e7ff"/><text x="100" y="115" fill="#1e1b4b" font-size="12" font-weight="400" text-anchor="middle">Init</text><rect x="50" y="92" width="380" height="38" rx="0" fill="white" stroke="#e0e7ff"/><text x="230" y="115" fill="#1e1b4b" font-size="12" font-weight="400" text-anchor="middle">compteur ← 0</text><rect x="50" y="92" width="380" height="38" rx="0" fill="white" stroke="#e0e7ff"/><text x="360" y="115" fill="#1e1b4b" font-size="12" font-weight="400" text-anchor="middle">?</text><rect x="50" y="132" width="380" height="38" rx="0" fill="#f5f3ff" stroke="#e0e7ff"/><text x="100" y="155" fill="#1e1b4b" font-size="12" font-weight="400" text-anchor="middle">+1</text><rect x="50" y="132" width="380" height="38" rx="0" fill="#f5f3ff" stroke="#e0e7ff"/><text x="230" y="155" fill="#1e1b4b" font-size="12" font-weight="400" text-anchor="middle">compteur ← compteur+1</text><rect x="50" y="132" width="380" height="38" rx="0" fill="#f5f3ff" stroke="#e0e7ff"/><text x="360" y="155" fill="#1e1b4b" font-size="12" font-weight="400" text-anchor="middle">?</text><rect x="50" y="172" width="380" height="38" rx="0" fill="white" stroke="#e0e7ff"/><text x="100" y="195" fill="#1e1b4b" font-size="12" font-weight="400" text-anchor="middle">+1</text><rect x="50" y="172" width="380" height="38" rx="0" fill="white" stroke="#e0e7ff"/><text x="230" y="195" fill="#1e1b4b" font-size="12" font-weight="400" text-anchor="middle">compteur ← compteur+1</text><rect x="50" y="172" width="380" height="38" rx="0" fill="white" stroke="#e0e7ff"/><text x="360" y="195" fill="#1e1b4b" font-size="12" font-weight="400" text-anchor="middle">?</text><rect x="50" y="212" width="380" height="38" rx="0" fill="#f5f3ff" stroke="#e0e7ff"/><text x="100" y="235" fill="#1e1b4b" font-size="12" font-weight="400" text-anchor="middle">+3</text><rect x="50" y="212" width="380" height="38" rx="0" fill="#f5f3ff" stroke="#e0e7ff"/><text x="230" y="235" fill="#1e1b4b" font-size="12" font-weight="400" text-anchor="middle">compteur ← compteur+3</text><rect x="50" y="212" width="380" height="38" rx="0" fill="#f5f3ff" stroke="#e0e7ff"/><text x="360" y="235" fill="#1e1b4b" font-size="12" font-weight="400" text-anchor="middle">?</text><rect x="50" y="252" width="380" height="38" rx="0" fill="white" stroke="#e0e7ff"/><text x="100" y="275" fill="#1e1b4b" font-size="12" font-weight="400" text-anchor="middle">Affiche</text><rect x="50" y="252" width="380" height="38" rx="0" fill="white" stroke="#e0e7ff"/><text x="230" y="275" fill="#1e1b4b" font-size="12" font-weight="400" text-anchor="middle">Afficher compteur</text><rect x="50" y="252" width="380" height="38" rx="0" fill="white" stroke="#e0e7ff"/><text x="360" y="275" fill="#1e1b4b" font-size="12" font-weight="400" text-anchor="middle">?</text></svg>