<svg xmlns="http://www.w3.org/2000/svg" width="480" height="340" font-family="Inter,Arial,sans-serif">
<rect width="480" height="340" fill="#f5f3ff" rx="12"/>
<rect x="10" y="10" width="42" height="23" rx="6" fill="#4f46e5"/>
<text x="31" y="25" fill="white" font-size="11" font-weight="700" text-anchor="middle">#07</text>
<rect x="20" y="55" width="440" height="260" rx="8" fill="white" stroke="#e0e7ff" stroke-width="1.5"/><text x="240" y="50" fill="#4f46e5" font-size="15" font-weight="700" text-anchor="middle">Quatre quadrilatères</text><polygon points="40,90 160,90 160,130 40,130" fill="#ede9fe" stroke="#4f46e5" stroke-width="2"/><text x="100" y="120" fill="#4f46e5" font-size="11" font-weight="600" text-anchor="middle">Rectangle</text><text x="100" y="108" fill="#6b7280" font-size="10" font-weight="400" text-anchor="middle">6 × 4 cm</text><polygon points="260,90 310,115 260,140 210,115" fill="#dcfce7" stroke="#10b981" stroke-width="2"/><text x="260" y="160" fill="#10b981" font-size="11" font-weight="600" text-anchor="middle">Losange</text><polygon points="360,90 420,90 420,140 360,140" fill="#fef9c3" stroke="#f59e0b" stroke-width="2"/><text x="390" y="163" fill="#f59e0b" font-size="11" font-weight="600" text-anchor="middle">Carré</text><polygon points="40,200 180,200 200,255 60,255" fill="#fee2e2" stroke="#ef4444" stroke-width="2"/><text x="120" y="270" fill="#ef4444" font-size="11" font-weight="600" text-anchor="middle">Parallélogramme</text><line x1="160" y1="200" x2="160" y2="255" stroke="#ef4444" stroke-width="1" stroke-dasharray="3 3"/><text x="40" y="88" fill="#4f46e5" font-size="12" font-weight="700" text-anchor="start">∟</text><text x="420" y="88" fill="#f59e0b" font-size="12" font-weight="700" text-anchor="start">∟</text>
</svg>