<svg xmlns="http://www.w3.org/2000/svg" width="480" height="340" font-family="Inter,Arial,sans-serif">
<rect width="480" height="340" fill="#f5f3ff" rx="12"/>
<rect x="10" y="10" width="42" height="23" rx="6" fill="#4f46e5"/>
<text x="31" y="25" fill="white" font-size="11" font-weight="700" text-anchor="middle">#08</text>
<rect x="30" y="60" width="420" height="235" rx="8" fill="white" stroke="#e0e7ff" stroke-width="1.5"/><text x="240" y="52" fill="#4f46e5" font-size="15" font-weight="700" text-anchor="middle">Droites parallèles coupées par une sécante</text><line x1="50" y1="130" x2="430" y2="130" stroke="#3b82f6" stroke-width="2"/><text x="434" y="134" fill="#3b82f6" font-size="12" font-weight="700" text-anchor="start">d1</text><line x1="50" y1="220" x2="430" y2="220" stroke="#3b82f6" stroke-width="2"/><text x="434" y="224" fill="#3b82f6" font-size="12" font-weight="700" text-anchor="start">d2</text><line x1="180" y1="80" x2="290" y2="275" stroke="#ef4444" stroke-width="2"/><text x="292" y="278" fill="#ef4444" font-size="12" font-weight="700" text-anchor="start">s</text><path d="M 240,130 A 25,25 0 0,0 222,109" fill="none" stroke="#f59e0b" stroke-width="1.5"/><text x="218" y="125" fill="#f59e0b" font-size="11" font-weight="700" text-anchor="start">65°</text><path d="M 254,220 A 25,25 0 0,1 272,241" fill="none" stroke="#f59e0b" stroke-width="1.5"/><text x="266" y="238" fill="#f59e0b" font-size="11" font-weight="700" text-anchor="start">65°</text><rect x="60" y="278" width="360" height="28" rx="6" fill="#dcfce7" stroke="none"/><text x="240" y="297" fill="#15803d" font-size="12" font-weight="600" text-anchor="middle">Angles alternes-internes égaux → d1 ∥ d2</text>
</svg>