<svg xmlns="http://www.w3.org/2000/svg" width="480" height="340" font-family="Inter,Arial,sans-serif">
<rect width="480" height="340" fill="#f5f3ff" rx="12"/>
<rect x="10" y="10" width="42" height="23" rx="6" fill="#4f46e5"/>
<text x="31" y="25" fill="white" font-size="11" font-weight="700" text-anchor="middle">#93</text>
<rect x="70" y="55" width="340" height="240" rx="8" fill="white" stroke="#e0e7ff" stroke-width="1.5"/><text x="240" y="47" fill="#4f46e5" font-size="15" font-weight="700" text-anchor="middle">Quadrilatère à diagonales ⊥ et égales</text><polygon points="240,85 345,175 240,265 135,175" fill="#ede9fe" stroke="#4f46e5" stroke-width="2"/><circle cx="240" cy="85" r="4" fill="#4f46e5"/><text x="244" y="77" fill="#4f46e5" font-size="12" font-weight="700">E</text><circle cx="345" cy="175" r="4" fill="#4f46e5"/><text x="351" y="175" fill="#4f46e5" font-size="12" font-weight="700">H</text><circle cx="240" cy="265" r="4" fill="#4f46e5"/><text x="244" y="275" fill="#4f46e5" font-size="12" font-weight="700">G</text><circle cx="135" cy="175" r="4" fill="#4f46e5"/><text x="121" y="175" fill="#4f46e5" font-size="12" font-weight="700">F</text><circle cx="240" cy="175" r="4" fill="#ef4444"/><text x="246" y="169" fill="#ef4444" font-size="12" font-weight="700">I</text><line x1="240" y1="85" x2="240" y2="265" stroke="#ef4444" stroke-width="1.5"/><line x1="135" y1="175" x2="345" y2="175" stroke="#3b82f6" stroke-width="1.5"/><rect x="240" y="175" width="12" height="12" rx="0" fill="#ef4444" stroke="none"/><text x="240" y="320" fill="#4f46e5" font-size="10" font-weight="600" text-anchor="middle">EG = FH = 10 cm, EI=IG=FI=IH=5 cm, EG⊥FH → LOSANGE</text>
</svg>