<svg xmlns="http://www.w3.org/2000/svg" width="480" height="340" font-family="Inter,Arial,sans-serif">
<rect width="480" height="340" fill="#f5f3ff" rx="12"/>
<rect x="10" y="10" width="42" height="23" rx="6" fill="#4f46e5"/>
<text x="31" y="25" fill="white" font-size="11" font-weight="700" text-anchor="middle">#82</text>
<rect x="50" y="55" width="380" height="240" rx="8" fill="white" stroke="#e0e7ff" stroke-width="1.5"/><text x="240" y="47" fill="#4f46e5" font-size="15" font-weight="700" text-anchor="middle">Perspective cavalière — pavé droit</text><polygon points="80,200 280,200 280,100 80,100" fill="#ede9fe" stroke="#4f46e5" stroke-width="2"/><line x1="80" y1="100" x2="130" y2="60" stroke="#4f46e5" stroke-width="2"/><line x1="280" y1="100" x2="330" y2="60" stroke="#4f46e5" stroke-width="2"/><line x1="280" y1="200" x2="330" y2="160" stroke="#4f46e5" stroke-width="2"/><line x1="130" y1="60" x2="330" y2="60" stroke="#4f46e5" stroke-width="2"/><line x1="330" y1="60" x2="330" y2="160" stroke="#4f46e5" stroke-width="2"/><line x1="80" y1="200" x2="130" y2="160" stroke="#4f46e5" stroke-width="1" stroke-dasharray="4 4"/><line x1="130" y1="160" x2="330" y2="160" stroke="#4f46e5" stroke-width="1" stroke-dasharray="4 4"/><line x1="130" y1="60" x2="130" y2="160" stroke="#4f46e5" stroke-width="1" stroke-dasharray="4 4"/><text x="50" y="152" fill="#ef4444" font-size="11" font-weight="700" text-anchor="start">h=4</text><text x="175" y="215" fill="#3b82f6" font-size="11" font-weight="700" text-anchor="middle">L=5</text><text x="340" y="115" fill="#10b981" font-size="11" font-weight="700" text-anchor="start">l=3</text>
</svg>