<svg xmlns="http://www.w3.org/2000/svg" width="480" height="340" font-family="Inter,Arial,sans-serif">
<rect width="480" height="340" fill="#f5f3ff" rx="12"/>
<rect x="10" y="10" width="42" height="23" rx="6" fill="#4f46e5"/>
<text x="31" y="25" fill="white" font-size="11" font-weight="700" text-anchor="middle">#17</text>
<rect x="30" y="50" width="420" height="260" rx="8" fill="white" stroke="#e0e7ff" stroke-width="1.5"/><text x="240" y="44" fill="#4f46e5" font-size="15" font-weight="700" text-anchor="middle">Trace de variables</text><rect x="30" y="60" width="90" height="28" rx="4" fill="#4f46e5" stroke="none"/><text x="75" y="78" fill="white" font-size="11" font-weight="700" text-anchor="middle">Étape</text><rect x="120" y="60" width="75" height="28" rx="4" fill="#4f46e5" stroke="none"/><text x="157" y="78" fill="white" font-size="13" font-weight="700" text-anchor="middle">a</text><rect x="195" y="60" width="75" height="28" rx="4" fill="#4f46e5" stroke="none"/><text x="232" y="78" fill="white" font-size="13" font-weight="700" text-anchor="middle">b</text><rect x="270" y="60" width="75" height="28" rx="4" fill="#4f46e5" stroke="none"/><text x="307" y="78" fill="white" font-size="13" font-weight="700" text-anchor="middle">c</text><rect x="345" y="60" width="90" height="28" rx="4" fill="#4f46e5" stroke="none"/><text x="390" y="78" fill="white" font-size="13" font-weight="700" text-anchor="middle">d</text><rect x="30" y="90" width="90" height="36" rx="0" fill="white" stroke="#e0e7ff"/><text x="75" y="113" fill="#1e1b4b" font-size="13" font-weight="600" text-anchor="middle">a←6</text><rect x="120" y="90" width="75" height="36" rx="0" fill="white" stroke="#e0e7ff"/><text x="157" y="113" fill="#1e1b4b" font-size="13" font-weight="400" text-anchor="middle">?</text><rect x="195" y="90" width="75" height="36" rx="0" fill="white" stroke="#e0e7ff"/><text x="232" y="113" fill="#1e1b4b" font-size="13" font-weight="400" text-anchor="middle">—</text><rect x="270" y="90" width="75" height="36" rx="0" fill="white" stroke="#e0e7ff"/><text x="307" y="113" fill="#1e1b4b" font-size="13" font-weight="400" text-anchor="middle">—</text><rect x="345" y="90" width="90" height="36" rx="0" fill="white" stroke="#e0e7ff"/><text x="390" y="113" fill="#1e1b4b" font-size="13" font-weight="400" text-anchor="middle">—</text><rect x="30" y="128" width="90" height="36" rx="0" fill="#f5f3ff" stroke="#e0e7ff"/><text x="75" y="151" fill="#1e1b4b" font-size="13" font-weight="600" text-anchor="middle">b←4</text><rect x="120" y="128" width="75" height="36" rx="0" fill="#f5f3ff" stroke="#e0e7ff"/><text x="157" y="151" fill="#1e1b4b" font-size="13" font-weight="400" text-anchor="middle">?</text><rect x="195" y="128" width="75" height="36" rx="0" fill="#f5f3ff" stroke="#e0e7ff"/><text x="232" y="151" fill="#1e1b4b" font-size="13" font-weight="400" text-anchor="middle">?</text><rect x="270" y="128" width="75" height="36" rx="0" fill="#f5f3ff" stroke="#e0e7ff"/><text x="307" y="151" fill="#1e1b4b" font-size="13" font-weight="400" text-anchor="middle">—</text><rect x="345" y="128" width="90" height="36" rx="0" fill="#f5f3ff" stroke="#e0e7ff"/><text x="390" y="151" fill="#1e1b4b" font-size="13" font-weight="400" text-anchor="middle">—</text><rect x="30" y="166" width="90" height="36" rx="0" fill="white" stroke="#e0e7ff"/><text x="75" y="189" fill="#1e1b4b" font-size="13" font-weight="600" text-anchor="middle">c←(a−b)×2</text><rect x="120" y="166" width="75" height="36" rx="0" fill="white" stroke="#e0e7ff"/><text x="157" y="189" fill="#1e1b4b" font-size="13" font-weight="400" text-anchor="middle">?</text><rect x="195" y="166" width="75" height="36" rx="0" fill="white" stroke="#e0e7ff"/><text x="232" y="189" fill="#1e1b4b" font-size="13" font-weight="400" text-anchor="middle">?</text><rect x="270" y="166" width="75" height="36" rx="0" fill="white" stroke="#e0e7ff"/><text x="307" y="189" fill="#1e1b4b" font-size="13" font-weight="400" text-anchor="middle">?</text><rect x="345" y="166" width="90" height="36" rx="0" fill="white" stroke="#e0e7ff"/><text x="390" y="189" fill="#1e1b4b" font-size="13" font-weight="400" text-anchor="middle">—</text><rect x="30" y="204" width="90" height="36" rx="0" fill="#f5f3ff" stroke="#e0e7ff"/><text x="75" y="227" fill="#1e1b4b" font-size="13" font-weight="600" text-anchor="middle">d←a+c</text><rect x="120" y="204" width="75" height="36" rx="0" fill="#f5f3ff" stroke="#e0e7ff"/><text x="157" y="227" fill="#1e1b4b" font-size="13" font-weight="400" text-anchor="middle">?</text><rect x="195" y="204" width="75" height="36" rx="0" fill="#f5f3ff" stroke="#e0e7ff"/><text x="232" y="227" fill="#1e1b4b" font-size="13" font-weight="400" text-anchor="middle">?</text><rect x="270" y="204" width="75" height="36" rx="0" fill="#f5f3ff" stroke="#e0e7ff"/><text x="307" y="227" fill="#1e1b4b" font-size="13" font-weight="400" text-anchor="middle">?</text><rect x="345" y="204" width="90" height="36" rx="0" fill="#f5f3ff" stroke="#e0e7ff"/><text x="390" y="227" fill="#1e1b4b" font-size="13" font-weight="400" text-anchor="middle">?</text>
</svg>