<svg xmlns="http://www.w3.org/2000/svg" width="480" height="340" font-family="Inter,Arial,sans-serif">
<rect width="480" height="340" fill="#f5f3ff" rx="12"/>
<rect x="10" y="10" width="42" height="23" rx="6" fill="#4f46e5"/>
<text x="31" y="25" fill="white" font-size="11" font-weight="700" text-anchor="middle">#33</text>
<rect x="30" y="48" width="420" height="270" rx="8" fill="white" stroke="#e0e7ff" stroke-width="1.5"/><text x="240" y="42" fill="#4f46e5" font-size="15" font-weight="700" text-anchor="middle">Algorithme : positif, négatif ou zéro ?</text><rect x="150" y="60" width="180" height="34" rx="8" fill="#3b82f6"/><text x="240" y="81" fill="white" font-size="12" font-weight="600" text-anchor="middle">Saisir nombre</text><line x1="240" y1="94" x2="240" y2="113" stroke="#6b7280" stroke-width="1.5"/><polygon points="240,113 236.0,105.0 244.0,105.0" fill="#6b7280"/><rect x="140" y="114" width="200" height="38" rx="8" fill="#fef9c3" stroke="#f59e0b"/><text x="240" y="137" fill="#92400e" font-size="12" font-weight="700" text-anchor="middle">nombre > 0 ?</text><line x1="140" y1="133" x2="80" y2="133" stroke="#6b7280" stroke-width="1.5"/><polygon points="80,133 88.0,129.0 88.0,137.0" fill="#6b7280"/><text x="90" y="126" fill="#6b7280" font-size="10" font-weight="400" text-anchor="start">Non</text><line x1="240" y1="152" x2="240" y2="170" stroke="#6b7280" stroke-width="1.5"/><polygon points="240,170 236.0,162.0 244.0,162.0" fill="#6b7280"/><text x="248" y="165" fill="#6b7280" font-size="10" font-weight="400" text-anchor="start">Oui</text><rect x="130" y="171" width="220" height="32" rx="8" fill="#fef9c3"/><text x="240" y="191" fill="#92400e" font-size="12" font-weight="600" text-anchor="middle">nombre < 0 ?</text><line x1="240" y1="203" x2="240" y2="220" stroke="#6b7280" stroke-width="1.5"/><polygon points="240,220 236.0,212.0 244.0,212.0" fill="#6b7280"/><text x="248" y="216" fill="#6b7280" font-size="10" font-weight="400" text-anchor="start">Non</text><line x1="130" y1="187" x2="70" y2="187" stroke="#6b7280" stroke-width="1.5"/><polygon points="70,187 78.0,183.0 78.0,191.0" fill="#6b7280"/><text x="28" y="190" fill="#6b7280" font-size="10" font-weight="400" text-anchor="start">Oui</text><rect x="10" y="196" width="60" height="32" rx="8" fill="#ef4444"/><text x="40" y="216" fill="white" font-size="12" font-weight="600" text-anchor="middle">Négatif</text><rect x="165" y="221" width="150" height="32" rx="8" fill="#6b7280"/><text x="240" y="241" fill="white" font-size="12" font-weight="600" text-anchor="middle">Zéro</text><rect x="355" y="105" width="90" height="32" rx="8" fill="#10b981"/><text x="400" y="125" fill="white" font-size="12" font-weight="600" text-anchor="middle">Positif</text><line x1="340" y1="133" x2="350" y2="133" stroke="#6b7280" stroke-width="1"/><line x1="350" y1="133" x2="355" y2="121" stroke="#6b7280" stroke-width="1.5"/><polygon points="355,121 355.6153846153846,129.92307692307693 348.2307692307692,126.84615384615385" fill="#6b7280"/>
</svg>