<svg xmlns="http://www.w3.org/2000/svg" width="480" height="340" font-family="Inter,Arial,sans-serif">
<rect width="480" height="340" fill="#f5f3ff" rx="12"/>
<rect x="10" y="10" width="42" height="23" rx="6" fill="#4f46e5"/>
<text x="31" y="25" fill="white" font-size="11" font-weight="700" text-anchor="middle">#52</text>
<rect x="15" y="48" width="450" height="268" rx="8" fill="white" stroke="#e0e7ff" stroke-width="1.5"/><text x="240" y="42" fill="#4f46e5" font-size="15" font-weight="700" text-anchor="middle">Modifier un programme</text><rect x="20" y="60" width="200" height="188" rx="8" fill="#fee2e2" stroke="#ef4444"/><text x="120" y="82" fill="#ef4444" font-size="11" font-weight="700" text-anchor="middle">Programme initial</text><rect x="30" y="90" width="180" height="32" rx="8" fill="#6b7280"/><text x="120" y="110" fill="white" font-size="12" font-weight="600" text-anchor="middle">Saisir cote</text><rect x="30" y="128" width="180" height="32" rx="8" fill="#6b7280"/><text x="120" y="148" fill="white" font-size="12" font-weight="600" text-anchor="middle">aire ← cote²</text><rect x="30" y="166" width="180" height="32" rx="8" fill="#6b7280"/><text x="120" y="186" fill="white" font-size="12" font-weight="600" text-anchor="middle">Afficher "Aire :"</text><rect x="30" y="204" width="180" height="32" rx="8" fill="#6b7280"/><text x="120" y="224" fill="white" font-size="12" font-weight="600" text-anchor="middle">Afficher aire</text><rect x="255" y="60" width="210" height="188" rx="8" fill="#dcfce7" stroke="#10b981"/><text x="360" y="82" fill="#10b981" font-size="11" font-weight="700" text-anchor="middle">Programme modifié</text><rect x="265" y="90" width="190" height="32" rx="8" fill="#3b82f6"/><text x="360" y="110" fill="white" font-size="12" font-weight="600" text-anchor="middle">Saisir longueur</text><rect x="265" y="128" width="190" height="32" rx="8" fill="#3b82f6"/><text x="360" y="148" fill="white" font-size="12" font-weight="600" text-anchor="middle">Saisir largeur</text><rect x="265" y="166" width="190" height="32" rx="8" fill="#4f46e5"/><text x="360" y="186" fill="white" font-size="12" font-weight="600" text-anchor="middle">aire ← ?</text><rect x="265" y="204" width="190" height="32" rx="8" fill="#10b981"/><text x="360" y="224" fill="white" font-size="12" font-weight="600" text-anchor="middle">Afficher aire</text><line x1="220" y1="155" x2="255" y2="155" stroke="#6b7280" stroke-width="1.5"/><polygon points="255,155 247.0,159.0 247.0,151.0" fill="#6b7280"/>
</svg>