<svg xmlns="http://www.w3.org/2000/svg" width="480" height="340" font-family="Inter,Arial,sans-serif">
<rect width="480" height="340" fill="#f5f3ff" rx="12"/>
<rect x="10" y="10" width="42" height="23" rx="6" fill="#4f46e5"/>
<text x="31" y="25" fill="white" font-size="11" font-weight="700" text-anchor="middle">#21</text>
<rect x="20" y="50" width="440" height="265" rx="8" fill="white" stroke="#e0e7ff" stroke-width="1.5"/><text x="240" y="44" fill="#4f46e5" font-size="15" font-weight="700" text-anchor="middle">Solides et sections planes</text><polygon points="40,170 130,170 130,240 40,240" fill="#ede9fe" stroke="#4f46e5" stroke-width="2"/><polygon points="40,170 65,145 155,145 130,170" fill="#d8d5ff" stroke="#4f46e5" stroke-width="1.5"/><line x1="130" y1="145" x2="130" y2="170" stroke="#4f46e5" stroke-width="1.5"/><text x="85" y="258" fill="#4f46e5" font-size="10" font-weight="600" text-anchor="middle">Pavé droit</text><text x="85" y="271" fill="#6b7280" font-size="9" font-weight="400" text-anchor="middle">8×5×4 cm</text><path d="M 175,240 Q 175,170 215,150 Q 255,130 255,170 L 255,240" fill="#dcfce7" stroke="#10b981" stroke-width="0"/><path d="M 175,240 Q 215,260 255,240" fill="#dcfce7" stroke="#10b981" stroke-width="0"/><rect x="175" y="170" width="80" height="70" rx="0" fill="#dcfce7" stroke="#10b981"/><path d="M 175,170 Q 215,190 255,170" fill="none" stroke="#10b981" stroke-width="2"/><path d="M 175,240 Q 215,260 255,240" fill="none" stroke="#10b981" stroke-width="2"/><text x="215" y="258" fill="#10b981" font-size="10" font-weight="600" text-anchor="middle">Cylindre</text><text x="215" y="271" fill="#6b7280" font-size="9" font-weight="400" text-anchor="middle">r=3, h=10</text><circle cx="370" cy="195" r="60" fill="#fef9c3" stroke="#f59e0b" stroke-width="2"/><text x="370" y="275" fill="#f59e0b" font-size="10" font-weight="600" text-anchor="middle">Boule</text><text x="370" y="288" fill="#6b7280" font-size="9" font-weight="400" text-anchor="middle">r = 5 cm</text>
</svg>