<svg xmlns="http://www.w3.org/2000/svg" width="480" height="340" font-family="Inter,Arial,sans-serif">
<rect width="480" height="340" fill="#f5f3ff" rx="12"/>
<rect x="10" y="10" width="42" height="23" rx="6" fill="#4f46e5"/>
<text x="31" y="25" fill="white" font-size="11" font-weight="700" text-anchor="middle">#66</text>
<rect x="40" y="48" width="400" height="268" rx="8" fill="white" stroke="#e0e7ff" stroke-width="1.5"/><text x="240" y="42" fill="#4f46e5" font-size="15" font-weight="700" text-anchor="middle">Condition ET — admission voyage scolaire</text><rect x="120" y="62" width="240" height="36" rx="8" fill="#3b82f6"/><text x="240" y="84" fill="white" font-size="12" font-weight="600" text-anchor="middle">Saisir moyenne, absences</text><line x1="240" y1="98" x2="240" y2="115" stroke="#6b7280" stroke-width="1.5"/><polygon points="240,115 236.0,107.0 244.0,107.0" fill="#6b7280"/><rect x="100" y="116" width="280" height="40" rx="8" fill="#fef9c3" stroke="#f59e0b"/><text x="240" y="131" fill="#92400e" font-size="12" font-weight="700" text-anchor="middle">moyenne ≥ ? ?</text><text x="240" y="148" fill="#92400e" font-size="12" font-weight="700" text-anchor="middle">ET  absences &lt; ? ?</text><line x1="100" y1="136" x2="40" y2="136" stroke="#6b7280" stroke-width="1.5"/><polygon points="40,136 48.0,132.0 48.0,140.0" fill="#6b7280"/><text x="20" y="130" fill="#6b7280" font-size="10" font-weight="400" text-anchor="start">Non</text><line x1="380" y1="136" x2="435" y2="136" stroke="#6b7280" stroke-width="1.5"/><polygon points="435,136 427.0,140.0 427.0,132.0" fill="#6b7280"/><text x="437" y="130" fill="#6b7280" font-size="10" font-weight="400" text-anchor="start">Oui</text><rect x="0" y="148" width="40" height="32" rx="8" fill="#ef4444"/><text x="20" y="168" fill="white" font-size="10" font-weight="600" text-anchor="middle">?</text><rect x="395" y="148" width="82" height="32" rx="8" fill="#10b981"/><text x="436" y="168" fill="white" font-size="12" font-weight="600" text-anchor="middle">?</text><text x="240" y="230" fill="#6b7280" font-size="11" font-weight="400" text-anchor="middle">Les deux conditions doivent être vraies simultanément</text><rect x="40" y="240" width="400" height="28" rx="6" fill="#dcfce7" stroke="none"/><text x="240" y="259" fill="#15803d" font-size="11" font-weight="600" text-anchor="middle">Opérateur logique ET : A ET B est vrai ssi A vrai ET B vrai</text>
</svg>