<svg xmlns="http://www.w3.org/2000/svg" width="480" height="340" font-family="Inter,Arial,sans-serif">
<rect width="480" height="340" fill="#f5f3ff" rx="12"/>
<rect x="10" y="10" width="42" height="23" rx="6" fill="#4f46e5"/>
<text x="31" y="25" fill="white" font-size="11" font-weight="700" text-anchor="middle">#34</text>
<rect x="60" y="55" width="360" height="235" rx="8" fill="white" stroke="#e0e7ff" stroke-width="1.5"/><text x="240" y="47" fill="#4f46e5" font-size="15" font-weight="700" text-anchor="middle">Angle inscrit dans un demi-cercle</text><circle cx="240" cy="185" r="110" fill="#ede9fe" stroke="#4f46e5" stroke-width="2"/><line x1="130" y1="185" x2="350" y2="185" stroke="#4f46e5" stroke-width="2"/><circle cx="130" cy="185" r="4" fill="#4f46e5"/><text x="114" y="185" fill="#4f46e5" font-size="12" font-weight="700">A</text><circle cx="350" cy="185" r="4" fill="#4f46e5"/><text x="356" y="185" fill="#4f46e5" font-size="12" font-weight="700">B</text><circle cx="240" cy="185" r="4" fill="#ef4444"/><text x="244" y="177" fill="#ef4444" font-size="12" font-weight="700">O</text><circle cx="300" cy="95" r="4" fill="#10b981"/><text x="304" y="87" fill="#10b981" font-size="12" font-weight="700">C</text><line x1="130" y1="185" x2="300" y2="95" stroke="#10b981" stroke-width="1.5"/><line x1="350" y1="185" x2="300" y2="95" stroke="#10b981" stroke-width="1.5"/><rect x="296" y="95" width="14" height="14" rx="0" fill="#10b981" stroke="none"/><text x="240" y="320" fill="#4f46e5" font-size="12" font-weight="700" text-anchor="middle">∠BCA = 90° (angle inscrit dans un demi-cercle)</text>
</svg>