<svg xmlns="http://www.w3.org/2000/svg" width="480" height="340" font-family="Inter,Arial,sans-serif">
<rect width="480" height="340" fill="#f5f3ff" rx="12"/>
<rect x="10" y="10" width="42" height="23" rx="6" fill="#4f46e5"/>
<text x="31" y="25" fill="white" font-size="11" font-weight="700" text-anchor="middle">#67</text>
<rect x="40" y="50" width="400" height="268" rx="8" fill="white" stroke="#e0e7ff" stroke-width="1.5"/><text x="240" y="44" fill="#4f46e5" font-size="15" font-weight="700" text-anchor="middle">Évolution de l'argent de poche</text><line x1="55" y1="285" x2="445" y2="285" stroke="#6b7280" stroke-width="1.5"/><polygon points="445,285 437.0,289.0 437.0,281.0" fill="#6b7280"/><text x="447" y="289" fill="#6b7280" font-size="10" font-weight="400" text-anchor="start">années</text><line x1="70" y1="298" x2="70" y2="60" stroke="#6b7280" stroke-width="1.5"/><polygon points="70,60 74.0,68.0 66.0,68.0" fill="#6b7280"/><text x="74" y="58" fill="#6b7280" font-size="10" font-weight="400" text-anchor="start">€/mois</text><line x1="65" y1="285" x2="75" y2="285" stroke="#6b7280" stroke-width="1"/><text x="58" y="289" fill="#6b7280" font-size="9" font-weight="400" text-anchor="middle">15</text><line x1="65" y1="265" x2="75" y2="265" stroke="#6b7280" stroke-width="1"/><text x="58" y="269" fill="#6b7280" font-size="9" font-weight="400" text-anchor="middle">20</text><line x1="65" y1="245" x2="75" y2="245" stroke="#6b7280" stroke-width="1"/><text x="58" y="249" fill="#6b7280" font-size="9" font-weight="400" text-anchor="middle">25</text><line x1="65" y1="225" x2="75" y2="225" stroke="#6b7280" stroke-width="1"/><text x="58" y="229" fill="#6b7280" font-size="9" font-weight="400" text-anchor="middle">30</text><line x1="65" y1="205" x2="75" y2="205" stroke="#6b7280" stroke-width="1"/><text x="58" y="209" fill="#6b7280" font-size="9" font-weight="400" text-anchor="middle">35</text><line x1="65" y1="185" x2="75" y2="185" stroke="#6b7280" stroke-width="1"/><text x="58" y="189" fill="#6b7280" font-size="9" font-weight="400" text-anchor="middle">40</text><line x1="65" y1="165" x2="75" y2="165" stroke="#6b7280" stroke-width="1"/><text x="58" y="169" fill="#6b7280" font-size="9" font-weight="400" text-anchor="middle">45</text><line x1="65" y1="145" x2="75" y2="145" stroke="#6b7280" stroke-width="1"/><text x="58" y="149" fill="#6b7280" font-size="9" font-weight="400" text-anchor="middle">50</text><line x1="65" y1="125" x2="75" y2="125" stroke="#6b7280" stroke-width="1"/><text x="58" y="129" fill="#6b7280" font-size="9" font-weight="400" text-anchor="middle">55</text><circle cx="70" cy="225" r="4" fill="#4f46e5"/><circle cx="130" cy="205" r="4" fill="#4f46e5"/><circle cx="190" cy="185" r="4" fill="#4f46e5"/><circle cx="250" cy="165" r="4" fill="#4f46e5"/><circle cx="310" cy="145" r="4" fill="#4f46e5"/><circle cx="370" cy="125" r="4" fill="#4f46e5"/><line x1="70" y1="225" x2="130" y2="205" stroke="#4f46e5" stroke-width="2"/><line x1="130" y1="205" x2="190" y2="185" stroke="#4f46e5" stroke-width="2"/><line x1="190" y1="185" x2="250" y2="165" stroke="#4f46e5" stroke-width="2"/><line x1="250" y1="165" x2="310" y2="145" stroke="#4f46e5" stroke-width="2"/><line x1="310" y1="145" x2="370" y2="125" stroke="#4f46e5" stroke-width="2"/><text x="140" y="205" fill="#4f46e5" font-size="11" font-weight="700" text-anchor="start">Paul (+5€/an)</text><circle cx="70" cy="273" r="4" fill="#4f46e5"/><circle cx="130" cy="245" r="4" fill="#4f46e5"/><circle cx="190" cy="217" r="4" fill="#4f46e5"/><circle cx="250" cy="189" r="4" fill="#4f46e5"/><circle cx="310" cy="161" r="4" fill="#4f46e5"/><circle cx="370" cy="133" r="4" fill="#4f46e5"/><line x1="70" y1="273" x2="130" y2="245" stroke="#ef4444" stroke-width="2"/><line x1="130" y1="245" x2="190" y2="217" stroke="#ef4444" stroke-width="2"/><line x1="190" y1="217" x2="250" y2="189" stroke="#ef4444" stroke-width="2"/><line x1="250" y1="189" x2="310" y2="161" stroke="#ef4444" stroke-width="2"/><line x1="310" y1="161" x2="370" y2="133" stroke="#ef4444" stroke-width="2"/><text x="200" y="250" fill="#ef4444" font-size="11" font-weight="700" text-anchor="start">Léo (+7€/an)</text><text x="240" y="318" fill="#6b7280" font-size="11" font-weight="400" text-anchor="middle">Les droites se croisent quand Léo rattrape Paul</text>
</svg>