<svg xmlns="http://www.w3.org/2000/svg" width="480" height="340" font-family="Inter,Arial,sans-serif">
<rect width="480" height="340" fill="#f5f3ff" rx="12"/>
<rect x="10" y="10" width="42" height="23" rx="6" fill="#4f46e5"/>
<text x="31" y="25" fill="white" font-size="11" font-weight="700" text-anchor="middle">#60</text>
<rect x="30" y="50" width="420" height="268" rx="8" fill="white" stroke="#e0e7ff" stroke-width="1.5"/><text x="240" y="44" fill="#4f46e5" font-size="15" font-weight="700" text-anchor="middle">Trace d'exécution du programme</text><rect x="30" y="62" width="420" height="28" rx="6" fill="#4f46e5" stroke="none"/><text x="100" y="78" fill="white" font-size="12" font-weight="700" text-anchor="middle">Instruction</text><text x="220" y="78" fill="white" font-size="12" font-weight="700" text-anchor="middle">a</text><text x="305" y="78" fill="white" font-size="12" font-weight="700" text-anchor="middle">b</text><text x="390" y="78" fill="white" font-size="12" font-weight="700" text-anchor="middle">c</text><rect x="30" y="92" width="420" height="36" rx="0" fill="white" stroke="#e0e7ff"/><text x="100" y="115" fill="#1e1b4b" font-size="12" font-weight="600" text-anchor="middle">a←5</text><rect x="30" y="92" width="420" height="36" rx="0" fill="white" stroke="#e0e7ff"/><text x="220" y="115" fill="#1e1b4b" font-size="12" font-weight="600" text-anchor="middle">5</text><rect x="30" y="92" width="420" height="36" rx="0" fill="white" stroke="#e0e7ff"/><text x="305" y="115" fill="#1e1b4b" font-size="12" font-weight="600" text-anchor="middle">—</text><rect x="30" y="92" width="420" height="36" rx="0" fill="white" stroke="#e0e7ff"/><text x="390" y="115" fill="#1e1b4b" font-size="12" font-weight="600" text-anchor="middle">—</text><rect x="30" y="130" width="420" height="36" rx="0" fill="#f5f3ff" stroke="#e0e7ff"/><text x="100" y="153" fill="#1e1b4b" font-size="12" font-weight="400" text-anchor="middle">b←3</text><rect x="30" y="130" width="420" height="36" rx="0" fill="#f5f3ff" stroke="#e0e7ff"/><text x="220" y="153" fill="#1e1b4b" font-size="12" font-weight="400" text-anchor="middle">5</text><rect x="30" y="130" width="420" height="36" rx="0" fill="#f5f3ff" stroke="#e0e7ff"/><text x="305" y="153" fill="#1e1b4b" font-size="12" font-weight="400" text-anchor="middle">3</text><rect x="30" y="130" width="420" height="36" rx="0" fill="#f5f3ff" stroke="#e0e7ff"/><text x="390" y="153" fill="#1e1b4b" font-size="12" font-weight="400" text-anchor="middle">—</text><rect x="30" y="168" width="420" height="36" rx="0" fill="white" stroke="#e0e7ff"/><text x="100" y="191" fill="#1e1b4b" font-size="12" font-weight="400" text-anchor="middle">c←a+b</text><rect x="30" y="168" width="420" height="36" rx="0" fill="white" stroke="#e0e7ff"/><text x="220" y="191" fill="#1e1b4b" font-size="12" font-weight="400" text-anchor="middle">5</text><rect x="30" y="168" width="420" height="36" rx="0" fill="white" stroke="#e0e7ff"/><text x="305" y="191" fill="#1e1b4b" font-size="12" font-weight="400" text-anchor="middle">3</text><rect x="30" y="168" width="420" height="36" rx="0" fill="white" stroke="#e0e7ff"/><text x="390" y="191" fill="#1e1b4b" font-size="12" font-weight="400" text-anchor="middle">8</text><rect x="30" y="206" width="420" height="36" rx="0" fill="#f5f3ff" stroke="#e0e7ff"/><text x="100" y="229" fill="#1e1b4b" font-size="12" font-weight="400" text-anchor="middle">a←c×2</text><rect x="30" y="206" width="420" height="36" rx="0" fill="#f5f3ff" stroke="#e0e7ff"/><text x="220" y="229" fill="#1e1b4b" font-size="12" font-weight="400" text-anchor="middle">16</text><rect x="30" y="206" width="420" height="36" rx="0" fill="#f5f3ff" stroke="#e0e7ff"/><text x="305" y="229" fill="#1e1b4b" font-size="12" font-weight="400" text-anchor="middle">3</text><rect x="30" y="206" width="420" height="36" rx="0" fill="#f5f3ff" stroke="#e0e7ff"/><text x="390" y="229" fill="#1e1b4b" font-size="12" font-weight="400" text-anchor="middle">8</text><rect x="30" y="258" width="420" height="28" rx="6" fill="#dcfce7" stroke="none"/><text x="240" y="275" fill="#15803d" font-size="13" font-weight="700" text-anchor="middle">Affiche : a=16  b=3  c=8</text>
</svg>