<svg xmlns="http://www.w3.org/2000/svg" width="480" height="340" font-family="Inter,Arial,sans-serif">
<rect width="480" height="340" fill="#f5f3ff" rx="12"/>
<rect x="10" y="10" width="42" height="23" rx="6" fill="#4f46e5"/>
<text x="31" y="25" fill="white" font-size="11" font-weight="700" text-anchor="middle">#90</text>
<rect x="30" y="50" width="420" height="265" rx="8" fill="white" stroke="#e0e7ff" stroke-width="1.5"/><text x="240" y="44" fill="#4f46e5" font-size="15" font-weight="700" text-anchor="middle">Patron (développé) d'un pavé droit</text><rect x="160" y="115" width="120" height="80" rx="2" fill="#ede9fe" stroke="#4f46e5"/><text x="220" y="160" fill="#4f46e5" font-size="11" font-weight="600" text-anchor="middle">6×4</text><rect x="160" y="35" width="120" height="80" rx="2" fill="#ede9fe" stroke="#4f46e5"/><text x="220" y="80" fill="#4f46e5" font-size="11" font-weight="600" text-anchor="middle">6×4</text><rect x="100" y="115" width="60" height="80" rx="2" fill="#dcfce7" stroke="#10b981"/><text x="130" y="160" fill="#10b981" font-size="10" font-weight="600" text-anchor="middle">3×4</text><rect x="280" y="115" width="60" height="80" rx="2" fill="#dcfce7" stroke="#10b981"/><text x="310" y="160" fill="#10b981" font-size="10" font-weight="600" text-anchor="middle">3×4</text><rect x="160" y="195" width="120" height="60" rx="2" fill="#fef9c3" stroke="#f59e0b"/><text x="220" y="230" fill="#b45309" font-size="11" font-weight="600" text-anchor="middle">6×3</text><rect x="160" y="255" width="120" height="60" rx="2" fill="#fef9c3" stroke="#f59e0b"/><text x="220" y="290" fill="#b45309" font-size="11" font-weight="600" text-anchor="middle">6×3</text><text x="240" y="325" fill="#6b7280" font-size="10" font-weight="400" text-anchor="middle">Surface totale = 2(LH+Ll+lH) = 2(18+24+12) = 108 cm²</text>
</svg>