<svg xmlns="http://www.w3.org/2000/svg" width="480" height="340" font-family="Inter,Arial,sans-serif">
<rect width="480" height="340" fill="#f5f3ff" rx="12"/>
<rect x="10" y="10" width="42" height="23" rx="6" fill="#4f46e5"/>
<text x="31" y="25" fill="white" font-size="11" font-weight="700" text-anchor="middle">#76</text>
<rect x="50" y="50" width="380" height="265" rx="8" fill="white" stroke="#e0e7ff" stroke-width="1.5"/><text x="240" y="44" fill="#4f46e5" font-size="15" font-weight="700" text-anchor="middle">Résoudre x² = 9 graphiquement</text><line x1="60" y1="200" x2="440" y2="200" stroke="#6b7280" stroke-width="1.5"/><polygon points="440,200 432.0,204.0 432.0,196.0" fill="#6b7280"/><text x="443" y="204" fill="#6b7280" font-size="12" font-weight="400" text-anchor="start">x</text><line x1="240" y1="295" x2="240" y2="55" stroke="#6b7280" stroke-width="1.5"/><polygon points="240,55 244.0,63.0 236.0,63.0" fill="#6b7280"/><text x="244" y="52" fill="#6b7280" font-size="12" font-weight="400" text-anchor="start">y</text><text x="90" y="210" fill="#6b7280" font-size="9" font-weight="400" text-anchor="middle">-3</text><text x="140" y="210" fill="#6b7280" font-size="9" font-weight="400" text-anchor="middle">-2</text><text x="190" y="210" fill="#6b7280" font-size="9" font-weight="400" text-anchor="middle">-1</text><text x="240" y="210" fill="#6b7280" font-size="9" font-weight="400" text-anchor="middle">0</text><text x="290" y="210" fill="#6b7280" font-size="9" font-weight="400" text-anchor="middle">1</text><text x="340" y="210" fill="#6b7280" font-size="9" font-weight="400" text-anchor="middle">2</text><text x="390" y="210" fill="#6b7280" font-size="9" font-weight="400" text-anchor="middle">3</text><text x="228" y="180" fill="#6b7280" font-size="9" font-weight="400" text-anchor="middle">1</text><text x="228" y="140" fill="#6b7280" font-size="9" font-weight="400" text-anchor="middle">3</text><text x="228" y="100" fill="#6b7280" font-size="9" font-weight="400" text-anchor="middle">5</text><text x="228" y="60" fill="#6b7280" font-size="9" font-weight="400" text-anchor="middle">7</text><text x="228" y="20" fill="#6b7280" font-size="9" font-weight="400" text-anchor="middle">9</text><path d="M 90,110 L 90,20 L 140,120 L 190,180 L 240,200 L 290,180 L 340,120 L 390,20" fill="none" stroke="#4f46e5" stroke-width="2"/><line x1="60" y1="20" x2="440" y2="20" stroke="#ef4444" stroke-width="2"/><text x="444" y="16" fill="#ef4444" font-size="11" font-weight="700" text-anchor="start">y=9</text><circle cx="90" cy="20" r="6" fill="#ef4444" stroke="#ef4444" stroke-width="0"/><text x="85" y="193" fill="#ef4444" font-size="10" font-weight="700" text-anchor="start">x=−3</text><circle cx="390" cy="20" r="6" fill="#ef4444" stroke="#ef4444" stroke-width="0"/><text x="391" y="193" fill="#ef4444" font-size="10" font-weight="700" text-anchor="start">x=3</text><text x="240" y="320" fill="#10b981" font-size="13" font-weight="700" text-anchor="middle">Solutions : x = −3  et  x = 3</text>
</svg>