<svg xmlns="http://www.w3.org/2000/svg" width="480" height="340" font-family="Inter,Arial,sans-serif">
<rect width="480" height="340" fill="#f5f3ff" rx="12"/>
<rect x="10" y="10" width="42" height="23" rx="6" fill="#4f46e5"/>
<text x="31" y="25" fill="white" font-size="11" font-weight="700" text-anchor="middle">#39</text>
<rect x="60" y="60" width="360" height="220" rx="8" fill="white" stroke="#e0e7ff" stroke-width="1.5"/><text x="240" y="52" fill="#4f46e5" font-size="15" font-weight="700" text-anchor="middle">Trigonométrie dans un triangle rectangle</text><polygon points="100,255 100,110 320,255" fill="#ede9fe" stroke="#4f46e5" stroke-width="2"/><rect x="100" y="239" width="16" height="16" rx="0" fill="#4f46e5" stroke="none"/><circle cx="100" cy="110" r="4" fill="#4f46e5"/><text x="86" y="104" fill="#4f46e5" font-size="12" font-weight="700">A</text><circle cx="100" cy="255" r="4" fill="#4f46e5"/><text x="86" y="267" fill="#4f46e5" font-size="12" font-weight="700">B</text><circle cx="320" cy="255" r="4" fill="#4f46e5"/><text x="326" y="267" fill="#4f46e5" font-size="12" font-weight="700">C</text><path d="M 100,135 A 25,25 0 0,1 118,148" fill="none" stroke="#f59e0b" stroke-width="2"/><text x="116" y="140" fill="#f59e0b" font-size="11" font-weight="700" text-anchor="start">35°</text><text x="78" y="182" fill="#4f46e5" font-size="12" font-weight="700" text-anchor="start">AB=6</text><rect x="60" y="278" width="360" height="28" rx="6" fill="#dcfce7" stroke="none"/><text x="240" y="297" fill="#15803d" font-size="12" font-weight="700" text-anchor="middle">tan(35°) = BC/AB</text>
</svg>