<svg xmlns="http://www.w3.org/2000/svg" width="480" height="340" font-family="Inter,Arial,sans-serif">
<rect width="480" height="340" fill="#f5f3ff" rx="12"/>
<rect x="10" y="10" width="42" height="23" rx="6" fill="#4f46e5"/>
<text x="31" y="25" fill="white" font-size="11" font-weight="700" text-anchor="middle">#91</text>
<rect x="40" y="55" width="400" height="248" rx="8" fill="white" stroke="#e0e7ff" stroke-width="1.5"/><text x="240" y="47" fill="#4f46e5" font-size="15" font-weight="700" text-anchor="middle">Puissances et carrés — a = 3</text><rect x="40" y="72" width="400" height="28" rx="6" fill="#4f46e5" stroke="none"/><text x="120" y="86" fill="white" font-size="12" font-weight="700" text-anchor="middle">Expression</text><text x="260" y="86" fill="white" font-size="12" font-weight="700" text-anchor="middle">Calcul</text><text x="380" y="86" fill="white" font-size="12" font-weight="700" text-anchor="middle">Valeur</text><rect x="40" y="102" width="400" height="34" rx="0" fill="white" stroke="#e0e7ff"/><text x="120" y="123" fill="#4f46e5" font-size="12" font-weight="700" text-anchor="middle">3¹</text><text x="260" y="123" fill="#1e1b4b" font-size="11" font-weight="400" text-anchor="middle">3</text><text x="380" y="123" fill="#10b981" font-size="13" font-weight="700" text-anchor="middle">3</text><rect x="40" y="138" width="400" height="34" rx="0" fill="#f5f3ff" stroke="#e0e7ff"/><text x="120" y="159" fill="#4f46e5" font-size="12" font-weight="700" text-anchor="middle">3²</text><text x="260" y="159" fill="#1e1b4b" font-size="11" font-weight="400" text-anchor="middle">3 × 3</text><text x="380" y="159" fill="#10b981" font-size="13" font-weight="700" text-anchor="middle">9</text><rect x="40" y="174" width="400" height="34" rx="0" fill="white" stroke="#e0e7ff"/><text x="120" y="195" fill="#4f46e5" font-size="12" font-weight="700" text-anchor="middle">3³</text><text x="260" y="195" fill="#1e1b4b" font-size="11" font-weight="400" text-anchor="middle">3 × 3 × 3</text><text x="380" y="195" fill="#10b981" font-size="13" font-weight="700" text-anchor="middle">27</text><rect x="40" y="210" width="400" height="34" rx="0" fill="#f5f3ff" stroke="#e0e7ff"/><text x="120" y="231" fill="#4f46e5" font-size="12" font-weight="700" text-anchor="middle">3⁻¹</text><text x="260" y="231" fill="#1e1b4b" font-size="11" font-weight="400" text-anchor="middle">1 ÷ 3</text><text x="380" y="231" fill="#10b981" font-size="13" font-weight="700" text-anchor="middle">0,333…</text><rect x="40" y="246" width="400" height="34" rx="0" fill="white" stroke="#e0e7ff"/><text x="120" y="267" fill="#4f46e5" font-size="12" font-weight="700" text-anchor="middle">3⁰</text><text x="260" y="267" fill="#1e1b4b" font-size="11" font-weight="400" text-anchor="middle">par convention</text><text x="380" y="267" fill="#10b981" font-size="13" font-weight="700" text-anchor="middle">1</text><text x="240" y="318" fill="#6b7280" font-size="11" font-weight="400" text-anchor="middle">Tout nombre (≠0) à la puissance 0 vaut 1</text>
</svg>