<svg xmlns="http://www.w3.org/2000/svg" width="480" height="340" font-family="Inter,Arial,sans-serif">
<rect width="480" height="340" fill="#f5f3ff" rx="12"/>
<rect x="10" y="10" width="42" height="23" rx="6" fill="#4f46e5"/>
<text x="31" y="25" fill="white" font-size="11" font-weight="700" text-anchor="middle">#32</text>
<rect x="50" y="55" width="380" height="245" rx="8" fill="white" stroke="#e0e7ff" stroke-width="1.5"/><text x="240" y="47" fill="#4f46e5" font-size="15" font-weight="700" text-anchor="middle">Théorème de Thalès</text><polygon points="240,75 100,270 380,270" fill="none" stroke="#4f46e5" stroke-width="2"/><line x1="150" y1="173" x2="330" y2="173" stroke="#ef4444" stroke-width="2"/><circle cx="240" cy="75" r="4" fill="#4f46e5"/><text x="244" y="65" fill="#4f46e5" font-size="12" font-weight="700">A</text><circle cx="100" cy="270" r="4" fill="#4f46e5"/><text x="84" y="278" fill="#4f46e5" font-size="12" font-weight="700">B</text><circle cx="380" cy="270" r="4" fill="#4f46e5"/><text x="386" y="278" fill="#4f46e5" font-size="12" font-weight="700">C</text><circle cx="150" cy="173" r="4" fill="#ef4444"/><text x="134" y="173" fill="#ef4444" font-size="12" font-weight="700">M</text><circle cx="330" cy="173" r="4" fill="#ef4444"/><text x="336" y="173" fill="#ef4444" font-size="12" font-weight="700">N</text><text x="240" y="125" fill="#ef4444" font-size="11" font-weight="600" text-anchor="middle">AM=4</text><text x="106" y="230" fill="#4f46e5" font-size="11" font-weight="600" text-anchor="start">AB=10</text><text x="155" y="300" fill="#6b7280" font-size="11" font-weight="400" text-anchor="middle">AN=3, AC=?</text><rect x="60" y="312" width="360" height="24" rx="6" fill="#dcfce7" stroke="none"/><text x="240" y="328" fill="#15803d" font-size="10" font-weight="700" text-anchor="middle">AN/AC = AM/AB  →  AC = AN×AB/AM = 3×10/4 = 7,5 cm</text>
</svg>