<svg xmlns="http://www.w3.org/2000/svg" width="480" height="340" font-family="Inter,Arial,sans-serif">
<rect width="480" height="340" fill="#f5f3ff" rx="12"/>
<rect x="10" y="10" width="42" height="23" rx="6" fill="#4f46e5"/>
<text x="31" y="25" fill="white" font-size="11" font-weight="700" text-anchor="middle">#11</text>
<rect x="40" y="65" width="400" height="220" rx="8" fill="white" stroke="#e0e7ff" stroke-width="1.5"/><text x="240" y="58" fill="#4f46e5" font-size="15" font-weight="700" text-anchor="middle">Inéquation : 2x ≥ 6</text><text x="240" y="120" fill="#4f46e5" font-size="20" font-weight="700" text-anchor="middle">2x ≥ 6   ⟺   x ≥ 3</text><line x1="60" y1="190" x2="430" y2="190" stroke="#1e1b4b" stroke-width="2"/><line x1="60" y1="184" x2="60" y2="196" stroke="#1e1b4b" stroke-width="1.5"/><text x="55" y="210" fill="#6b7280" font-size="11" font-weight="400" text-anchor="middle">-1</text><line x1="105" y1="184" x2="105" y2="196" stroke="#1e1b4b" stroke-width="1.5"/><text x="100" y="210" fill="#6b7280" font-size="11" font-weight="400" text-anchor="middle">0</text><line x1="150" y1="184" x2="150" y2="196" stroke="#1e1b4b" stroke-width="1.5"/><text x="145" y="210" fill="#6b7280" font-size="11" font-weight="400" text-anchor="middle">1</text><line x1="195" y1="184" x2="195" y2="196" stroke="#1e1b4b" stroke-width="1.5"/><text x="190" y="210" fill="#6b7280" font-size="11" font-weight="400" text-anchor="middle">2</text><line x1="240" y1="184" x2="240" y2="196" stroke="#1e1b4b" stroke-width="1.5"/><text x="235" y="210" fill="#6b7280" font-size="11" font-weight="400" text-anchor="middle">3</text><line x1="285" y1="184" x2="285" y2="196" stroke="#1e1b4b" stroke-width="1.5"/><text x="280" y="210" fill="#6b7280" font-size="11" font-weight="400" text-anchor="middle">4</text><line x1="330" y1="184" x2="330" y2="196" stroke="#1e1b4b" stroke-width="1.5"/><text x="325" y="210" fill="#6b7280" font-size="11" font-weight="400" text-anchor="middle">5</text><line x1="375" y1="184" x2="375" y2="196" stroke="#1e1b4b" stroke-width="1.5"/><text x="370" y="210" fill="#6b7280" font-size="11" font-weight="400" text-anchor="middle">6</text><circle cx="240" cy="190" r="7" fill="#4f46e5" stroke="#4f46e5" stroke-width="0"/><line x1="240" y1="190" x2="425" y2="190" stroke="#4f46e5" stroke-width="1.5"/><polygon points="425,190 417.0,194.0 417.0,186.0" fill="#4f46e5"/><rect x="60" y="240" width="400" height="28" rx="6" fill="#dcfce7" stroke="none"/><text x="240" y="259" fill="#15803d" font-size="13" font-weight="700" text-anchor="middle">Solution : x ∈ [3 ; +∞)</text>
</svg>