<svg xmlns="http://www.w3.org/2000/svg" width="480" height="340" font-family="Inter,Arial,sans-serif">
<rect width="480" height="340" fill="#f5f3ff" rx="12"/>
<rect x="10" y="10" width="42" height="23" rx="6" fill="#4f46e5"/>
<text x="31" y="25" fill="white" font-size="11" font-weight="700" text-anchor="middle">#94</text>
<rect x="30" y="60" width="420" height="220" rx="8" fill="white" stroke="#e0e7ff" stroke-width="1.5"/><text x="240" y="52" fill="#4f46e5" font-size="15" font-weight="700" text-anchor="middle">Droite graduée — nombres relatifs</text><line x1="40" y1="175" x2="460" y2="175" stroke="#1e1b4b" stroke-width="2"/><line x1="460" y1="175" x2="475" y2="175" stroke="#1e1b4b" stroke-width="1.5"/><polygon points="475,175 467.0,179.0 467.0,171.0" fill="#1e1b4b"/><line x1="40" y1="168" x2="40" y2="182" stroke="#1e1b4b" stroke-width="1.5"/><text x="37" y="196" fill="#6b7280" font-size="10" font-weight="400" text-anchor="middle">-2</text><line x1="90" y1="168" x2="90" y2="182" stroke="#1e1b4b" stroke-width="1.5"/><text x="87" y="196" fill="#6b7280" font-size="10" font-weight="400" text-anchor="middle">-1</text><line x1="140" y1="168" x2="140" y2="182" stroke="#1e1b4b" stroke-width="1.5"/><text x="137" y="196" fill="#6b7280" font-size="10" font-weight="400" text-anchor="middle">0</text><line x1="190" y1="168" x2="190" y2="182" stroke="#1e1b4b" stroke-width="1.5"/><text x="187" y="196" fill="#6b7280" font-size="10" font-weight="400" text-anchor="middle">1</text><line x1="240" y1="168" x2="240" y2="182" stroke="#1e1b4b" stroke-width="1.5"/><text x="237" y="196" fill="#6b7280" font-size="10" font-weight="400" text-anchor="middle">2</text><line x1="290" y1="168" x2="290" y2="182" stroke="#1e1b4b" stroke-width="1.5"/><text x="287" y="196" fill="#6b7280" font-size="10" font-weight="400" text-anchor="middle">3</text><line x1="340" y1="168" x2="340" y2="182" stroke="#1e1b4b" stroke-width="1.5"/><text x="337" y="196" fill="#6b7280" font-size="10" font-weight="400" text-anchor="middle">4</text><line x1="390" y1="168" x2="390" y2="182" stroke="#1e1b4b" stroke-width="1.5"/><text x="387" y="196" fill="#6b7280" font-size="10" font-weight="400" text-anchor="middle">5</text><line x1="440" y1="168" x2="440" y2="182" stroke="#1e1b4b" stroke-width="1.5"/><text x="437" y="196" fill="#6b7280" font-size="10" font-weight="400" text-anchor="middle">6</text><circle cx="-10" cy="175" r="6" fill="#ef4444" stroke="#ef4444" stroke-width="0"/><text x="-12" y="162" fill="#ef4444" font-size="9" font-weight="700" text-anchor="middle">−3</text><circle cx="115.0" cy="175" r="5" fill="#3b82f6" stroke="#3b82f6" stroke-width="0"/><text x="109.0" y="162" fill="#3b82f6" font-size="9" font-weight="700" text-anchor="middle">−0,5</text><circle cx="140" cy="175" r="6" fill="#10b981" stroke="#10b981" stroke-width="0"/><text x="138" y="162" fill="#10b981" font-size="10" font-weight="700" text-anchor="middle">0</text><circle cx="265.0" cy="175" r="5" fill="#f59e0b" stroke="#f59e0b" stroke-width="0"/><text x="259.0" y="162" fill="#f59e0b" font-size="9" font-weight="700" text-anchor="middle">2,5</text><text x="40" y="220" fill="#ef4444" font-size="10" font-weight="600" text-anchor="start">←  −8</text><text x="380" y="220" fill="#4f46e5" font-size="10" font-weight="600" text-anchor="start">+7 et +12  →</text><text x="240" y="250" fill="#6b7280" font-size="11" font-weight="400" text-anchor="middle">Classer et placer sur la droite graduée</text>
</svg>