<svg xmlns="http://www.w3.org/2000/svg" width="480" height="340" font-family="Inter,Arial,sans-serif">
<rect width="480" height="340" fill="#f5f3ff" rx="12"/>
<rect x="10" y="10" width="42" height="23" rx="6" fill="#4f46e5"/>
<text x="31" y="25" fill="white" font-size="11" font-weight="700" text-anchor="middle">#04</text>
<rect x="50" y="55" width="380" height="255" rx="8" fill="white" stroke="#e0e7ff" stroke-width="1.5"/><text x="240" y="50" fill="#4f46e5" font-size="15" font-weight="700" text-anchor="middle">Programme par blocs</text><rect x="130" y="70" width="220" height="38" rx="8" fill="#3b82f6"/><text x="240" y="93" fill="white" font-size="12" font-weight="600" text-anchor="middle">Saisir : age</text><line x1="240" y1="108" x2="240" y2="125" stroke="#6b7280" stroke-width="1.5"/><polygon points="240,125 236.0,117.0 244.0,117.0" fill="#6b7280"/><rect x="90" y="126" width="300" height="38" rx="8" fill="#4f46e5"/><text x="240" y="149" fill="white" font-size="12" font-weight="600" text-anchor="middle">annee = 2024 − age</text><line x1="240" y1="164" x2="240" y2="181" stroke="#6b7280" stroke-width="1.5"/><polygon points="240,181 236.0,173.0 244.0,173.0" fill="#6b7280"/><rect x="90" y="182" width="300" height="38" rx="8" fill="#10b981"/><text x="240" y="205" fill="white" font-size="12" font-weight="600" text-anchor="middle">Afficher "Tu es né en " + annee</text><line x1="30" y1="225" x2="450" y2="225" stroke="#e0e7ff" stroke-width="1"/><rect x="90" y="232" width="300" height="28" rx="6" fill="#fef9c3" stroke="none"/><text x="240" y="251" fill="#92400e" font-size="11" font-weight="400" text-anchor="middle">Ex : age=13  →  affiche « Tu es né en 2011 »</text>
</svg>