<svg xmlns="http://www.w3.org/2000/svg" width="480" height="340" font-family="Inter,Arial,sans-serif">
<rect width="480" height="340" fill="#f5f3ff" rx="12"/>
<rect x="10" y="10" width="42" height="23" rx="6" fill="#4f46e5"/>
<text x="31" y="25" fill="white" font-size="11" font-weight="700" text-anchor="middle">#81</text>
<rect x="30" y="60" width="420" height="220" rx="8" fill="white" stroke="#e0e7ff" stroke-width="1.5"/><text x="240" y="52" fill="#4f46e5" font-size="15" font-weight="700" text-anchor="middle">Relation de Chasles</text><circle cx="80" cy="190" r="4" fill="#4f46e5"/><text x="80" y="178" fill="#4f46e5" font-size="12" font-weight="700">A</text><circle cx="240" cy="130" r="4" fill="#10b981"/><text x="240" y="118" fill="#10b981" font-size="12" font-weight="700">B</text><circle cx="400" cy="180" r="4" fill="#ef4444"/><text x="400" y="168" fill="#ef4444" font-size="12" font-weight="700">C</text><line x1="84" y1="186" x2="236" y2="134" stroke="#10b981" stroke-width="1.5"/><polygon points="236,134 229.72543883662513,140.37415737231734 227.1359374041212,132.80484549269048" fill="#10b981"/><text x="155" y="148" fill="#10b981" font-size="13" font-weight="700" text-anchor="start">AB⃗</text><line x1="244" y1="132" x2="396" y2="178" stroke="#ef4444" stroke-width="1.5"/><polygon points="396,178 387.18432655240366,179.51125830530225 389.5015892872004,171.85421622510427" fill="#ef4444"/><text x="325" y="142" fill="#ef4444" font-size="13" font-weight="700" text-anchor="start">BC⃗</text><line x1="84" y1="190" x2="396" y2="184" stroke="#4f46e5" stroke-width="1.5"/><polygon points="396,184 388.07838773668664,188.15307827397012 387.92457002283584,180.15455715373136" fill="#4f46e5"/><text x="240" y="210" fill="#4f46e5" font-size="13" font-weight="700" text-anchor="middle">AC⃗</text><rect x="30" y="235" width="420" height="30" rx="6" fill="#dcfce7" stroke="#10b981"/><text x="240" y="254" fill="#15803d" font-size="13" font-weight="700" text-anchor="middle">Relation de Chasles</text>
</svg>