<svg xmlns="http://www.w3.org/2000/svg" width="480" height="340" font-family="Inter,Arial,sans-serif">
<rect width="480" height="340" fill="#f5f3ff" rx="12"/>
<rect x="10" y="10" width="42" height="23" rx="6" fill="#4f46e5"/>
<text x="31" y="25" fill="white" font-size="11" font-weight="700" text-anchor="middle">#69</text>
<rect x="40" y="50" width="400" height="265" rx="8" fill="white" stroke="#e0e7ff" stroke-width="1.5"/><text x="240" y="44" fill="#4f46e5" font-size="15" font-weight="700" text-anchor="middle">Parallélogramme dans un repère</text><line x1="50" y1="285" x2="450" y2="285" stroke="#6b7280" stroke-width="1.5"/><polygon points="450,285 442.0,289.0 442.0,281.0" fill="#6b7280"/><line x1="70" y1="300" x2="70" y2="55" stroke="#6b7280" stroke-width="1.5"/><polygon points="70,55 74.0,63.0 66.0,63.0" fill="#6b7280"/><line x1="70" y1="60" x2="70" y2="285" stroke="#e5e7eb" stroke-width="0.5"/><line x1="130" y1="60" x2="130" y2="285" stroke="#e5e7eb" stroke-width="0.5"/><line x1="190" y1="60" x2="190" y2="285" stroke="#e5e7eb" stroke-width="0.5"/><line x1="250" y1="60" x2="250" y2="285" stroke="#e5e7eb" stroke-width="0.5"/><line x1="310" y1="60" x2="310" y2="285" stroke="#e5e7eb" stroke-width="0.5"/><line x1="370" y1="60" x2="370" y2="285" stroke="#e5e7eb" stroke-width="0.5"/><line x1="430" y1="60" x2="430" y2="285" stroke="#e5e7eb" stroke-width="0.5"/><line x1="70" y1="285" x2="450" y2="285" stroke="#e5e7eb" stroke-width="0.5"/><line x1="70" y1="225" x2="450" y2="225" stroke="#e5e7eb" stroke-width="0.5"/><line x1="70" y1="165" x2="450" y2="165" stroke="#e5e7eb" stroke-width="0.5"/><line x1="70" y1="105" x2="450" y2="105" stroke="#e5e7eb" stroke-width="0.5"/><line x1="70" y1="45" x2="450" y2="45" stroke="#e5e7eb" stroke-width="0.5"/><polygon points="350,40 200,-10 250,290" fill="none" stroke="#4f46e5" stroke-width="1.5"/><circle cx="350" cy="40" r="4" fill="#4f46e5"/><text x="354" y="32" fill="#4f46e5" font-size="12" font-weight="700">A</text><circle cx="200" cy="-10" r="4" fill="#4f46e5"/><text x="184" y="-18" fill="#4f46e5" font-size="12" font-weight="700">B</text><circle cx="250" cy="290" r="4" fill="#4f46e5"/><text x="254" y="298" fill="#4f46e5" font-size="12" font-weight="700">C</text><text x="240" y="298" fill="#6b7280" font-size="11" font-weight="400" text-anchor="middle">D tel que ABDC est un parallélogramme</text><text x="240" y="315" fill="#ef4444" font-size="12" font-weight="700" text-anchor="middle">D = B + C − A = (−3 ; −1)</text>
</svg>