<svg xmlns="http://www.w3.org/2000/svg" width="480" height="340" font-family="Inter,Arial,sans-serif">
<rect width="480" height="340" fill="#f5f3ff" rx="12"/>
<rect x="10" y="10" width="42" height="23" rx="6" fill="#4f46e5"/>
<text x="31" y="25" fill="white" font-size="11" font-weight="700" text-anchor="middle">#09</text>
<rect x="60" y="50" width="360" height="268" rx="8" fill="white" stroke="#e0e7ff" stroke-width="1.5"/><text x="240" y="45" fill="#4f46e5" font-size="15" font-weight="700" text-anchor="middle">Programme : périmètre d'un rectangle</text><rect x="140" y="62" width="200" height="34" rx="8" fill="#3b82f6"/><text x="240" y="83" fill="white" font-size="12" font-weight="600" text-anchor="middle">Saisir L (longueur)</text><line x1="240" y1="96" x2="240" y2="110" stroke="#6b7280" stroke-width="1.5"/><polygon points="240,110 236.0,102.0 244.0,102.0" fill="#6b7280"/><rect x="140" y="111" width="200" height="34" rx="8" fill="#3b82f6"/><text x="240" y="132" fill="white" font-size="12" font-weight="600" text-anchor="middle">Saisir l (largeur)</text><line x1="240" y1="145" x2="240" y2="159" stroke="#6b7280" stroke-width="1.5"/><polygon points="240,159 236.0,151.0 244.0,151.0" fill="#6b7280"/><rect x="100" y="160" width="280" height="34" rx="8" fill="#4f46e5"/><text x="240" y="181" fill="white" font-size="12" font-weight="600" text-anchor="middle">P ← 2 × (L + l)</text><line x1="240" y1="194" x2="240" y2="208" stroke="#6b7280" stroke-width="1.5"/><polygon points="240,208 236.0,200.0 244.0,200.0" fill="#6b7280"/><rect x="100" y="209" width="280" height="34" rx="8" fill="#10b981"/><text x="240" y="230" fill="white" font-size="12" font-weight="600" text-anchor="middle">Afficher P</text><line x1="60" y1="255" x2="420" y2="255" stroke="#e0e7ff" stroke-width="1"/><text x="240" y="278" fill="#6b7280" font-size="11" font-weight="400" text-anchor="middle">P = 2×(L+l) est la formule du périmètre</text>
</svg>