<svg xmlns="http://www.w3.org/2000/svg" width="480" height="340" font-family="Inter,Arial,sans-serif">
<rect width="480" height="340" fill="#f5f3ff" rx="12"/>
<rect x="10" y="10" width="42" height="23" rx="6" fill="#4f46e5"/>
<text x="31" y="25" fill="white" font-size="11" font-weight="700" text-anchor="middle">#84</text>
<rect x="40" y="55" width="400" height="250" rx="8" fill="white" stroke="#e0e7ff" stroke-width="1.5"/><text x="240" y="47" fill="#4f46e5" font-size="15" font-weight="700" text-anchor="middle">Fractions du litre de lait nécessaire</text><rect x="60" y="100" width="300" height="40" rx="4" fill="#e0e7ff" stroke="#4f46e5"/><text x="60" y="88" fill="#4f46e5" font-size="12" font-weight="700" text-anchor="start">Lait nécessaire : 3/4 L</text><rect x="60" y="100" width="75" height="40" rx="2" fill="#4f46e5" stroke="#4f46e5"/><rect x="135" y="100" width="75" height="40" rx="2" fill="#4f46e5" stroke="#4f46e5"/><rect x="210" y="100" width="75" height="40" rx="2" fill="#4f46e5" stroke="#4f46e5"/><rect x="285" y="100" width="75" height="40" rx="2" fill="#f5f3ff" stroke="#4f46e5"/><text x="97" y="125" fill="white" font-size="10" font-weight="600" text-anchor="middle">1/4</text><text x="172" y="125" fill="white" font-size="10" font-weight="600" text-anchor="middle">1/4</text><text x="247" y="125" fill="white" font-size="10" font-weight="600" text-anchor="middle">1/4</text><text x="322" y="125" fill="#6b7280" font-size="10" font-weight="600" text-anchor="middle"></text><rect x="60" y="165" width="300" height="40" rx="4" fill="#e0e7ff" stroke="#10b981"/><text x="60" y="153" fill="#10b981" font-size="12" font-weight="700" text-anchor="start">Lait disponible : 1/3 L</text><rect x="60" y="165" width="100" height="40" rx="2" fill="#10b981" stroke="#10b981"/><rect x="160" y="165" width="100" height="40" rx="2" fill="#f5f3ff" stroke="#10b981"/><rect x="260" y="165" width="100" height="40" rx="2" fill="#f5f3ff" stroke="#10b981"/><text x="110" y="190" fill="white" font-size="11" font-weight="600" text-anchor="middle">1/3</text></svg>