<svg xmlns="http://www.w3.org/2000/svg" width="480" height="340" font-family="Inter,Arial,sans-serif">
<rect width="480" height="340" fill="#f5f3ff" rx="12"/>
<rect x="10" y="10" width="42" height="23" rx="6" fill="#4f46e5"/>
<text x="31" y="25" fill="white" font-size="11" font-weight="700" text-anchor="middle">#68</text>
<rect x="50" y="55" width="380" height="240" rx="8" fill="white" stroke="#e0e7ff" stroke-width="1.5"/><text x="240" y="47" fill="#4f46e5" font-size="15" font-weight="700" text-anchor="middle">Quadrilatère ABCD dans un repère</text><line x1="60" y1="280" x2="440" y2="280" stroke="#6b7280" stroke-width="1.5"/><polygon points="440,280 432.0,284.0 432.0,276.0" fill="#6b7280"/><line x1="80" y1="295" x2="80" y2="60" stroke="#6b7280" stroke-width="1.5"/><polygon points="80,60 84.0,68.0 76.0,68.0" fill="#6b7280"/><line x1="80" y1="65" x2="80" y2="280" stroke="#e5e7eb" stroke-width="0.5"/><line x1="140" y1="65" x2="140" y2="280" stroke="#e5e7eb" stroke-width="0.5"/><line x1="200" y1="65" x2="200" y2="280" stroke="#e5e7eb" stroke-width="0.5"/><line x1="260" y1="65" x2="260" y2="280" stroke="#e5e7eb" stroke-width="0.5"/><line x1="320" y1="65" x2="320" y2="280" stroke="#e5e7eb" stroke-width="0.5"/><line x1="380" y1="65" x2="380" y2="280" stroke="#e5e7eb" stroke-width="0.5"/><line x1="440" y1="65" x2="440" y2="280" stroke="#e5e7eb" stroke-width="0.5"/><line x1="80" y1="280" x2="440" y2="280" stroke="#e5e7eb" stroke-width="0.5"/><line x1="80" y1="220" x2="440" y2="220" stroke="#e5e7eb" stroke-width="0.5"/><line x1="80" y1="160" x2="440" y2="160" stroke="#e5e7eb" stroke-width="0.5"/><line x1="80" y1="100" x2="440" y2="100" stroke="#e5e7eb" stroke-width="0.5"/><polygon points="80,280 320,280 380,100 140,100" fill="#ede9fe" stroke="#4f46e5" stroke-width="2"/><circle cx="80" cy="280" r="4" fill="#4f46e5"/><text x="64" y="290" fill="#4f46e5" font-size="12" font-weight="700">A</text><circle cx="320" cy="280" r="4" fill="#4f46e5"/><text x="326" y="290" fill="#4f46e5" font-size="12" font-weight="700">B</text><circle cx="380" cy="100" r="4" fill="#4f46e5"/><text x="386" y="94" fill="#4f46e5" font-size="12" font-weight="700">C</text><circle cx="140" cy="100" r="4" fill="#4f46e5"/><text x="124" y="94" fill="#4f46e5" font-size="12" font-weight="700">D</text><text x="240" y="318" fill="#15803d" font-size="12" font-weight="700" text-anchor="middle">AB ∥ DC  →  ABCD est un trapèze</text>
</svg>