<svg xmlns="http://www.w3.org/2000/svg" width="480" height="340" font-family="Inter,Arial,sans-serif">
<rect width="480" height="340" fill="#f5f3ff" rx="12"/>
<rect x="10" y="10" width="42" height="23" rx="6" fill="#4f46e5"/>
<text x="31" y="25" fill="white" font-size="11" font-weight="700" text-anchor="middle">#23</text>
<rect x="50" y="50" width="380" height="265" rx="8" fill="white" stroke="#e0e7ff" stroke-width="1.5"/><text x="240" y="44" fill="#4f46e5" font-size="15" font-weight="700" text-anchor="middle">Trace du programme — prix total</text><rect x="70" y="60" width="340" height="28" rx="8" fill="#3b82f6"/><text x="240" y="78" fill="white" font-size="12" font-weight="600" text-anchor="middle">prix_unitaire ← 5</text><rect x="70" y="94" width="340" height="28" rx="8" fill="#3b82f6"/><text x="240" y="112" fill="white" font-size="12" font-weight="600" text-anchor="middle">quantite ← 3</text><rect x="70" y="128" width="340" height="28" rx="8" fill="#3b82f6"/><text x="240" y="146" fill="white" font-size="12" font-weight="600" text-anchor="middle">remise ← 2</text><rect x="70" y="162" width="340" height="28" rx="8" fill="#4f46e5"/><text x="240" y="180" fill="white" font-size="12" font-weight="600" text-anchor="middle">total ← (5 × 3) − 2   = 13</text><rect x="70" y="196" width="340" height="28" rx="8" fill="#10b981"/><text x="240" y="214" fill="white" font-size="12" font-weight="600" text-anchor="middle">Dire "Le total est : " + 13</text><line x1="50" y1="232" x2="430" y2="232" stroke="#e0e7ff" stroke-width="1"/><rect x="70" y="240" width="340" height="28" rx="6" fill="#dcfce7" stroke="none"/><text x="240" y="259" fill="#15803d" font-size="12" font-weight="600" text-anchor="middle">Le programme affiche : "Le total est : 13"</text>
</svg>