<svg xmlns="http://www.w3.org/2000/svg" width="480" height="340" font-family="Inter,Arial,sans-serif">
<rect width="480" height="340" fill="#f5f3ff" rx="12"/>
<rect x="10" y="10" width="42" height="23" rx="6" fill="#4f46e5"/>
<text x="31" y="25" fill="white" font-size="11" font-weight="700" text-anchor="middle">#79</text>
<rect x="30" y="44" width="420" height="268" rx="8" fill="white" stroke="#e0e7ff" stroke-width="1.5"/><text x="240" y="38" fill="#4f46e5" font-size="15" font-weight="700" text-anchor="middle">Programme : moyenne et commentaire</text><rect x="90" y="55" width="300" height="28" rx="8" fill="#3b82f6"/><text x="240" y="73" fill="white" font-size="11" font-weight="600" text-anchor="middle">Saisir note1, note2, note3</text><line x1="240" y1="83" x2="240" y2="99" stroke="#6b7280" stroke-width="1.5"/><polygon points="240,99 236.0,91.0 244.0,91.0" fill="#6b7280"/><rect x="90" y="100" width="300" height="28" rx="8" fill="#4f46e5"/><text x="240" y="118" fill="white" font-size="11" font-weight="600" text-anchor="middle">moy ← (note1+note2+note3) ÷ 3</text><line x1="240" y1="128" x2="240" y2="144" stroke="#6b7280" stroke-width="1.5"/><polygon points="240,144 236.0,136.0 244.0,136.0" fill="#6b7280"/><rect x="110" y="145" width="260" height="38" rx="8" fill="#fef9c3" stroke="#f59e0b"/><text x="240" y="159" fill="#92400e" font-size="11" font-weight="700" text-anchor="middle">moy ≥ 14 ?</text><text x="240" y="174" fill="#10b981" font-size="10" font-weight="400" text-anchor="start">→ Très bien</text><line x1="370" y1="163" x2="420" y2="163" stroke="#6b7280" stroke-width="1.5"/><polygon points="420,163 412.0,167.0 412.0,159.0" fill="#6b7280"/><text x="422" y="158" fill="#6b7280" font-size="9" font-weight="400" text-anchor="start">Non</text><rect x="380" y="147" width="88" height="42" rx="6" fill="#fef9c3" stroke="#f59e0b"/><text x="424" y="162" fill="#92400e" font-size="10" font-weight="middle" text-anchor="start">moy</text><text x="424" y="174" fill="#92400e" font-size="10" font-weight="400" text-anchor="middle">≥ 10 ?</text><line x1="468" y1="168" x2="468" y2="195" stroke="#6b7280" stroke-width="1.5"/><polygon points="468,195 464.0,187.0 472.0,187.0" fill="#6b7280"/><rect x="415" y="196" width="100" height="30" rx="8" fill="#818cf8"/><text x="465" y="215" fill="white" font-size="11" font-weight="600" text-anchor="middle">Bien</text><rect x="400" y="232" width="130" height="30" rx="8" fill="#ef4444"/><text x="465" y="251" fill="white" font-size="10" font-weight="600" text-anchor="middle">À améliorer</text><line x1="468" y1="226" x2="468" y2="232" stroke="#6b7280" stroke-width="1.5"/><polygon points="468,232 464.0,224.0 472.0,224.0" fill="#6b7280"/><line x1="240" y1="183" x2="240" y2="198" stroke="#6b7280" stroke-width="1.5"/><polygon points="240,198 236.0,190.0 244.0,190.0" fill="#6b7280"/><rect x="90" y="199" width="280" height="28" rx="8" fill="#10b981"/><text x="230" y="217" fill="white" font-size="11" font-weight="600" text-anchor="middle">Afficher moy + commentaire</text>
</svg>