<svg xmlns="http://www.w3.org/2000/svg" width="480" height="340" font-family="Inter,Arial,sans-serif">
<rect width="480" height="340" fill="#f5f3ff" rx="12"/>
<rect x="10" y="10" width="42" height="23" rx="6" fill="#4f46e5"/>
<text x="31" y="25" fill="white" font-size="11" font-weight="700" text-anchor="middle">#88</text>
<rect x="40" y="48" width="400" height="268" rx="8" fill="white" stroke="#e0e7ff" stroke-width="1.5"/><text x="240" y="42" fill="#4f46e5" font-size="15" font-weight="700" text-anchor="middle">Boucle : table de multiplication</text><rect x="120" y="60" width="240" height="34" rx="8" fill="#3b82f6"/><text x="240" y="81" fill="white" font-size="12" font-weight="600" text-anchor="middle">Saisir n</text><rect x="60" y="98" width="360" height="28" rx="8" fill="#4f46e5"/><text x="240" y="116" fill="white" font-size="12" font-weight="600" text-anchor="middle">k ← 1</text><line x1="240" y1="126" x2="240" y2="143" stroke="#6b7280" stroke-width="1.5"/><polygon points="240,143 236.0,135.0 244.0,135.0" fill="#6b7280"/><rect x="110" y="144" width="260" height="38" rx="8" fill="#fef9c3" stroke="#f59e0b"/><text x="240" y="167" fill="#92400e" font-size="13" font-weight="700" text-anchor="middle">k ≤ 10 ?</text><line x1="370" y1="163" x2="420" y2="163" stroke="#6b7280" stroke-width="1.5"/><polygon points="420,163 412.0,167.0 412.0,159.0" fill="#6b7280"/><text x="422" y="158" fill="#ef4444" font-size="9" font-weight="400" text-anchor="start">Non → Stop</text><line x1="240" y1="182" x2="240" y2="198" stroke="#6b7280" stroke-width="1.5"/><polygon points="240,198 236.0,190.0 244.0,190.0" fill="#6b7280"/><text x="248" y="194" fill="#6b7280" font-size="10" font-weight="400" text-anchor="start">Oui</text><rect x="80" y="199" width="320" height="30" rx="8" fill="#10b981"/><text x="240" y="218" fill="white" font-size="11" font-weight="600" text-anchor="middle">Afficher n " x " k " = " n×k</text><line x1="240" y1="229" x2="240" y2="245" stroke="#6b7280" stroke-width="1.5"/><polygon points="240,245 236.0,237.0 244.0,237.0" fill="#6b7280"/><rect x="130" y="246" width="220" height="30" rx="8" fill="#4f46e5"/><text x="240" y="265" fill="white" font-size="12" font-weight="600" text-anchor="middle">k ← k + 1</text><path d="M 400,261 Q 440,261 440,163" fill="none" stroke="#6b7280" stroke-width="1.5" stroke-dasharray="4 4"/>
</svg>