<svg xmlns="http://www.w3.org/2000/svg" width="480" height="340" font-family="Inter,Arial,sans-serif">
<rect width="480" height="340" fill="#f5f3ff" rx="12"/>
<rect x="10" y="10" width="42" height="23" rx="6" fill="#4f46e5"/>
<text x="31" y="25" fill="white" font-size="11" font-weight="700" text-anchor="middle">#83</text>
<rect x="30" y="55" width="420" height="250" rx="8" fill="white" stroke="#e0e7ff" stroke-width="1.5"/><text x="240" y="47" fill="#4f46e5" font-size="15" font-weight="700" text-anchor="middle">Arbre : sport et sport collectif</text><circle cx="70" cy="168" r="6" fill="#4f46e5" stroke="#4f46e5" stroke-width="0"/><line x1="76" y1="168" x2="200" y2="120" stroke="#10b981" stroke-width="1.5"/><polygon points="200,120 193.98343162403813,126.61822521355805 191.09547880357644,119.15768042736534" fill="#10b981"/><text x="125" y="128" fill="#10b981" font-size="12" font-weight="700" text-anchor="start">3/5</text><circle cx="206" cy="120" r="6" fill="#10b981" stroke="#10b981" stroke-width="0"/><text x="218" y="124" fill="#10b981" font-size="11" font-weight="400" text-anchor="start">Sport</text><line x1="212" y1="116" x2="330" y2="80" stroke="#3b82f6" stroke-width="1.5"/><polygon points="330,80 323.5154079313362,86.16036246523063 321.18095478661724,78.50854382420732" fill="#3b82f6"/><text x="265" y="85" fill="#3b82f6" font-size="12" font-weight="700" text-anchor="start">2/3</text><circle cx="336" cy="80" r="6" fill="#3b82f6" stroke="#3b82f6" stroke-width="0"/><text x="348" y="84" fill="#3b82f6" font-size="10" font-weight="400" text-anchor="start">Collectif</text><line x1="212" y1="124" x2="330" y2="150" stroke="#f59e0b" stroke-width="1.5"/><polygon points="330,150 321.3266902874472,152.18487954591023 323.04811053574014,144.3722799575039" fill="#f59e0b"/><text x="260" y="146" fill="#f59e0b" font-size="12" font-weight="700" text-anchor="start">1/3</text><circle cx="336" cy="150" r="6" fill="#f59e0b" stroke="#f59e0b" stroke-width="0"/><text x="348" y="154" fill="#f59e0b" font-size="10" font-weight="400" text-anchor="start">Individuel</text><line x1="76" y1="172" x2="200" y2="220" stroke="#6b7280" stroke-width="1.5"/><polygon points="200,220 191.09547880357644,220.84231957263466 193.98343162403813,213.38177478644195" fill="#6b7280"/><text x="125" y="210" fill="#6b7280" font-size="12" font-weight="700" text-anchor="start">2/5</text><circle cx="206" cy="220" r="6" fill="#6b7280" stroke="#6b7280" stroke-width="0"/><text x="218" y="224" fill="#6b7280" font-size="10" font-weight="400" text-anchor="start">Pas de sport</text></svg>