<svg xmlns="http://www.w3.org/2000/svg" width="480" height="340" font-family="Inter,Arial,sans-serif">
<rect width="480" height="340" fill="#f5f3ff" rx="12"/>
<rect x="10" y="10" width="42" height="23" rx="6" fill="#4f46e5"/>
<text x="31" y="25" fill="white" font-size="11" font-weight="700" text-anchor="middle">#50</text>
<rect x="40" y="55" width="400" height="245" rx="8" fill="white" stroke="#e0e7ff" stroke-width="1.5"/><text x="240" y="47" fill="#4f46e5" font-size="15" font-weight="700" text-anchor="middle">Construire un rectangle au compas</text><polygon points="80,220 320,220 320,120 80,120" fill="#ede9fe" stroke="#4f46e5" stroke-width="2"/><circle cx="80" cy="220" r="4" fill="#4f46e5"/><text x="64" y="228" fill="#4f46e5" font-size="12" font-weight="700">A</text><circle cx="320" cy="220" r="4" fill="#4f46e5"/><text x="326" y="228" fill="#4f46e5" font-size="12" font-weight="700">B</text><circle cx="320" cy="120" r="4" fill="#4f46e5"/><text x="326" y="112" fill="#4f46e5" font-size="12" font-weight="700">C</text><circle cx="80" cy="120" r="4" fill="#4f46e5"/><text x="64" y="112" fill="#4f46e5" font-size="12" font-weight="700">D</text><line x1="80" y1="220" x2="320" y2="120" stroke="#ef4444" stroke-width="1" stroke-dasharray="4 4"/><line x1="320" y1="220" x2="80" y2="120" stroke="#10b981" stroke-width="1" stroke-dasharray="4 4"/><text x="190" y="175" fill="#6b7280" font-size="10" font-weight="600" text-anchor="middle">AC=BD</text><rect x="340" y="118" width="110" height="104" rx="8" fill="#fef9c3" stroke="none"/><text x="395" y="137" fill="#92400e" font-size="11" font-weight="700" text-anchor="middle">Méthode :</text><text x="350" y="155" fill="#92400e" font-size="10" font-weight="400" text-anchor="start">1) Tracer AB=8cm</text><text x="350" y="172" fill="#92400e" font-size="10" font-weight="400" text-anchor="start">2) Arc rayon 5cm</text><text x="350" y="189" fill="#92400e" font-size="10" font-weight="400" text-anchor="start">3) Arc rayon AC</text><text x="350" y="206" fill="#92400e" font-size="10" font-weight="400" text-anchor="start">4) AC = BD</text>
</svg>