<svg xmlns="http://www.w3.org/2000/svg" width="480" height="340" font-family="Inter,Arial,sans-serif">
<rect width="480" height="340" fill="#f5f3ff" rx="12"/>
<rect x="10" y="10" width="42" height="23" rx="6" fill="#4f46e5"/>
<text x="31" y="25" fill="white" font-size="11" font-weight="700" text-anchor="middle">#12</text>
<rect x="60" y="65" width="360" height="230" rx="8" fill="white" stroke="#e0e7ff" stroke-width="1.5"/><text x="240" y="57" fill="#4f46e5" font-size="15" font-weight="700" text-anchor="middle">Rectangle ABCD — diagonales</text><polygon points="90,100 390,100 390,230 90,230" fill="#ede9fe" stroke="#4f46e5" stroke-width="2"/><line x1="90" y1="100" x2="390" y2="230" stroke="#ef4444" stroke-width="1.5"/><line x1="390" y1="100" x2="90" y2="230" stroke="#10b981" stroke-width="1.5"/><circle cx="90" cy="100" r="4" fill="#4f46e5"/><text x="74" y="96" fill="#4f46e5" font-size="12" font-weight="700">A</text><circle cx="390" cy="100" r="4" fill="#4f46e5"/><text x="396" y="96" fill="#4f46e5" font-size="12" font-weight="700">B</text><circle cx="390" cy="230" r="4" fill="#4f46e5"/><text x="396" y="234" fill="#4f46e5" font-size="12" font-weight="700">C</text><circle cx="90" cy="230" r="4" fill="#4f46e5"/><text x="74" y="234" fill="#4f46e5" font-size="12" font-weight="700">D</text><circle cx="240" cy="165" r="4" fill="#ef4444"/><text x="246" y="161" fill="#ef4444" font-size="12" font-weight="700">O</text><text x="240" y="198" fill="#6b7280" font-size="11" font-weight="400" text-anchor="middle">AB=8 cm</text><text x="420" y="165" fill="#6b7280" font-size="11" font-weight="400" text-anchor="start">BC=5 cm</text><rect x="60" y="278" width="360" height="28" rx="6" fill="#fef9c3" stroke="none"/><text x="240" y="297" fill="#92400e" font-size="11" font-weight="600" text-anchor="middle">O est le milieu des deux diagonales (propriété du rectangle)</text>
</svg>