<svg xmlns="http://www.w3.org/2000/svg" width="480" height="340" font-family="Inter,Arial,sans-serif">
<rect width="480" height="340" fill="#f5f3ff" rx="12"/>
<rect x="10" y="10" width="42" height="23" rx="6" fill="#4f46e5"/>
<text x="31" y="25" fill="white" font-size="11" font-weight="700" text-anchor="middle">#89</text>
<rect x="30" y="65" width="420" height="210" rx="8" fill="white" stroke="#e0e7ff" stroke-width="1.5"/><text x="240" y="57" fill="#4f46e5" font-size="15" font-weight="700" text-anchor="middle">Division : ruban de 7,2 m en morceaux</text><rect x="40" y="130" width="400" height="50" rx="6" fill="#e0e7ff" stroke="#4f46e5"/><text x="240" y="160" fill="#4f46e5" font-size="14" font-weight="700" text-anchor="middle">7,2 m</text><rect x="62" y="130" width="22" height="50" rx="0" fill="none" stroke="#4f46e5"/><line x1="62" y1="130" x2="62" y2="180" stroke="#4f46e5" stroke-width="1"/><rect x="84" y="130" width="22" height="50" rx="0" fill="none" stroke="#4f46e5"/><line x1="84" y1="130" x2="84" y2="180" stroke="#4f46e5" stroke-width="1"/><rect x="106" y="130" width="22" height="50" rx="0" fill="none" stroke="#4f46e5"/><line x1="106" y1="130" x2="106" y2="180" stroke="#4f46e5" stroke-width="1"/><rect x="128" y="130" width="22" height="50" rx="0" fill="none" stroke="#4f46e5"/><line x1="128" y1="130" x2="128" y2="180" stroke="#4f46e5" stroke-width="1"/><rect x="151" y="130" width="22" height="50" rx="0" fill="none" stroke="#4f46e5"/><line x1="151" y1="130" x2="151" y2="180" stroke="#4f46e5" stroke-width="1"/><rect x="173" y="130" width="22" height="50" rx="0" fill="none" stroke="#4f46e5"/><line x1="173" y1="130" x2="173" y2="180" stroke="#4f46e5" stroke-width="1"/><rect x="195" y="130" width="22" height="50" rx="0" fill="none" stroke="#4f46e5"/><line x1="195" y1="130" x2="195" y2="180" stroke="#4f46e5" stroke-width="1"/><rect x="217" y="130" width="22" height="50" rx="0" fill="none" stroke="#4f46e5"/><line x1="217" y1="130" x2="217" y2="180" stroke="#4f46e5" stroke-width="1"/><rect x="240" y="130" width="22" height="50" rx="0" fill="none" stroke="#4f46e5"/><line x1="240" y1="130" x2="240" y2="180" stroke="#4f46e5" stroke-width="1"/><rect x="262" y="130" width="22" height="50" rx="0" fill="none" stroke="#4f46e5"/><line x1="262" y1="130" x2="262" y2="180" stroke="#4f46e5" stroke-width="1"/><rect x="284" y="130" width="22" height="50" rx="0" fill="none" stroke="#4f46e5"/><line x1="284" y1="130" x2="284" y2="180" stroke="#4f46e5" stroke-width="1"/><rect x="306" y="130" width="22" height="50" rx="0" fill="none" stroke="#4f46e5"/><line x1="306" y1="130" x2="306" y2="180" stroke="#4f46e5" stroke-width="1"/><rect x="328" y="130" width="22" height="50" rx="0" fill="none" stroke="#4f46e5"/><line x1="328" y1="130" x2="328" y2="180" stroke="#4f46e5" stroke-width="1"/><rect x="351" y="130" width="22" height="50" rx="0" fill="none" stroke="#4f46e5"/><line x1="351" y1="130" x2="351" y2="180" stroke="#4f46e5" stroke-width="1"/><rect x="373" y="130" width="22" height="50" rx="0" fill="none" stroke="#4f46e5"/><line x1="373" y1="130" x2="373" y2="180" stroke="#4f46e5" stroke-width="1"/><rect x="395" y="130" width="22" height="50" rx="0" fill="none" stroke="#4f46e5"/><line x1="395" y1="130" x2="395" y2="180" stroke="#4f46e5" stroke-width="1"/><rect x="417" y="130" width="22" height="50" rx="0" fill="none" stroke="#4f46e5"/><line x1="417" y1="130" x2="417" y2="180" stroke="#4f46e5" stroke-width="1"/><rect x="40" y="195" width="22" height="40" rx="4" fill="#4f46e5" stroke="none"/><text x="51" y="222" fill="white" font-size="10" font-weight="600" text-anchor="middle">0,4 m</text><rect x="30" y="255" width="420" height="30" rx="6" fill="#dcfce7" stroke="#10b981"/><text x="240" y="275" fill="#15803d" font-size="15" font-weight="700" text-anchor="middle">7,2 ÷ 0,4 = 18 morceaux</text>
</svg>