<svg xmlns="http://www.w3.org/2000/svg" width="480" height="340" font-family="Inter,Arial,sans-serif">
<rect width="480" height="340" fill="#f5f3ff" rx="12"/>
<rect x="10" y="10" width="42" height="23" rx="6" fill="#4f46e5"/>
<text x="31" y="25" fill="white" font-size="11" font-weight="700" text-anchor="middle">#62</text>
<rect x="40" y="50" width="400" height="265" rx="8" fill="white" stroke="#e0e7ff" stroke-width="1.5"/><text x="240" y="44" fill="#4f46e5" font-size="15" font-weight="700" text-anchor="middle">Points dans un quadrillage</text><line x1="50" y1="290" x2="450" y2="290" stroke="#6b7280" stroke-width="1.5"/><polygon points="450,290 442.0,294.0 442.0,286.0" fill="#6b7280"/><text x="453" y="294" fill="#6b7280" font-size="12" font-weight="400" text-anchor="start">x</text><line x1="70" y1="305" x2="70" y2="55" stroke="#6b7280" stroke-width="1.5"/><polygon points="70,55 74.0,63.0 66.0,63.0" fill="#6b7280"/><text x="74" y="52" fill="#6b7280" font-size="12" font-weight="400" text-anchor="start">y</text><line x1="70" y1="60" x2="70" y2="290" stroke="#e5e7eb" stroke-width="0.8"/><line x1="130" y1="60" x2="130" y2="290" stroke="#e5e7eb" stroke-width="0.8"/><line x1="190" y1="60" x2="190" y2="290" stroke="#e5e7eb" stroke-width="0.8"/><line x1="250" y1="60" x2="250" y2="290" stroke="#e5e7eb" stroke-width="0.8"/><line x1="310" y1="60" x2="310" y2="290" stroke="#e5e7eb" stroke-width="0.8"/><line x1="370" y1="60" x2="370" y2="290" stroke="#e5e7eb" stroke-width="0.8"/><line x1="430" y1="60" x2="430" y2="290" stroke="#e5e7eb" stroke-width="0.8"/><line x1="70" y1="290" x2="450" y2="290" stroke="#e5e7eb" stroke-width="0.8"/><line x1="70" y1="230" x2="450" y2="230" stroke="#e5e7eb" stroke-width="0.8"/><line x1="70" y1="170" x2="450" y2="170" stroke="#e5e7eb" stroke-width="0.8"/><line x1="70" y1="110" x2="450" y2="110" stroke="#e5e7eb" stroke-width="0.8"/><line x1="70" y1="50" x2="450" y2="50" stroke="#e5e7eb" stroke-width="0.8"/><text x="60" y="304" fill="#6b7280" font-size="9" font-weight="400" text-anchor="middle">0</text><text x="120" y="304" fill="#6b7280" font-size="9" font-weight="400" text-anchor="middle">1</text><text x="180" y="304" fill="#6b7280" font-size="9" font-weight="400" text-anchor="middle">2</text><text x="240" y="304" fill="#6b7280" font-size="9" font-weight="400" text-anchor="middle">3</text><text x="300" y="304" fill="#6b7280" font-size="9" font-weight="400" text-anchor="middle">4</text><text x="360" y="304" fill="#6b7280" font-size="9" font-weight="400" text-anchor="middle">5</text><text x="420" y="304" fill="#6b7280" font-size="9" font-weight="400" text-anchor="middle">6</text><text x="58" y="233" fill="#6b7280" font-size="9" font-weight="400" text-anchor="middle">1</text><text x="58" y="173" fill="#6b7280" font-size="9" font-weight="400" text-anchor="middle">2</text><text x="58" y="113" fill="#6b7280" font-size="9" font-weight="400" text-anchor="middle">3</text><text x="58" y="53" fill="#6b7280" font-size="9" font-weight="400" text-anchor="middle">4</text><circle cx="130" cy="230" r="4" fill="#ef4444"/><text x="134" y="222" fill="#ef4444" font-size="12" font-weight="700">A</text><circle cx="310" cy="110" r="4" fill="#3b82f6"/><text x="314" y="102" fill="#3b82f6" font-size="12" font-weight="700">B</text><circle cx="190" cy="50" r="4" fill="#10b981"/><text x="194" y="42" fill="#10b981" font-size="12" font-weight="700">C</text><circle cx="310" cy="230" r="4" fill="#f59e0b"/><text x="314" y="222" fill="#f59e0b" font-size="12" font-weight="700">E</text>
</svg>