<svg xmlns="http://www.w3.org/2000/svg" width="480" height="340" font-family="Inter,Arial,sans-serif">
<rect width="480" height="340" fill="#f5f3ff" rx="12"/>
<rect x="10" y="10" width="42" height="23" rx="6" fill="#4f46e5"/>
<text x="31" y="25" fill="white" font-size="11" font-weight="700" text-anchor="middle">#01</text>
<rect x="60" y="70" width="360" height="200" rx="8" fill="white" stroke="#e0e7ff" stroke-width="1.5"/><text x="240" y="62" fill="#4f46e5" font-size="15" font-weight="700" text-anchor="middle">Simplification d'expression</text><text x="80" y="140" fill="#1e1b4b" font-size="22" font-weight="700" text-anchor="start">A  =</text><rect x="150" y="108" width="52" height="32" rx="6" fill="#fef9c3" stroke="#f59e0b"/><text x="154" y="130" fill="#b45309" font-size="18" font-weight="700" text-anchor="start">3x</text><text x="207" y="130" fill="#1e1b4b" font-size="18" font-weight="400" text-anchor="start">× 5y</text><line x1="148" y1="150" x2="305" y2="150" stroke="#4f46e5" stroke-width="2"/><rect x="150" y="156" width="52" height="32" rx="6" fill="#fef9c3" stroke="#f59e0b"/><text x="154" y="178" fill="#b45309" font-size="18" font-weight="700" text-anchor="start">3x</text><text x="207" y="178" fill="#1e1b4b" font-size="18" font-weight="400" text-anchor="start">× 2z</text><text x="318" y="155" fill="#6b7280" font-size="26" font-weight="400" text-anchor="start">→</text><text x="365" y="142" fill="#1e1b4b" font-size="20" font-weight="700" text-anchor="middle">5y</text><line x1="348" y1="150" x2="382" y2="150" stroke="#4f46e5" stroke-width="2"/><text x="365" y="172" fill="#1e1b4b" font-size="20" font-weight="700" text-anchor="middle">2z</text><rect x="60" y="248" width="360" height="30" rx="8" fill="#dcfce7" stroke="none"/><text x="240" y="268" fill="#15803d" font-size="12" font-weight="600" text-anchor="middle">Le facteur commun 3x se simplifie (x ≠ 0)</text>
</svg>