<svg xmlns="http://www.w3.org/2000/svg" width="480" height="340" font-family="Inter,Arial,sans-serif">
<rect width="480" height="340" fill="#f5f3ff" rx="12"/>
<rect x="10" y="10" width="42" height="23" rx="6" fill="#4f46e5"/>
<text x="31" y="25" fill="white" font-size="11" font-weight="700" text-anchor="middle">#02</text>
<rect x="30" y="70" width="420" height="220" rx="8" fill="white" stroke="#e0e7ff" stroke-width="1.5"/><text x="240" y="62" fill="#4f46e5" font-size="15" font-weight="700" text-anchor="middle">Demi-tour de centre O</text><line x1="60" y1="180" x2="420" y2="180" stroke="#e0e7ff" stroke-width="1"/><circle cx="90" cy="180" r="4" fill="#ef4444"/><text x="90" y="168" fill="#ef4444" font-size="12" font-weight="700">A</text><circle cx="240" cy="180" r="4" fill="#4f46e5"/><text x="240" y="168" fill="#4f46e5" font-size="12" font-weight="700">O</text><circle cx="390" cy="180" r="4" fill="#10b981"/><text x="390" y="168" fill="#10b981" font-size="12" font-weight="700">B</text><line x1="90" y1="180" x2="390" y2="180" stroke="#6b7280" stroke-width="1.5"/><circle cx="240" cy="180" r="150" fill="none" stroke="#818cf8" stroke-width="1"/><circle cx="90" cy="250" r="4" fill="#10b981"/><text x="50" y="262" fill="#10b981" font-size="12" font-weight="700">B' = image de B</text><circle cx="390" cy="250" r="4" fill="#ef4444"/><text x="390" y="262" fill="#ef4444" font-size="12" font-weight="700">A' = image de A</text><line x1="90" y1="180" x2="90" y2="248" stroke="#ef4444" stroke-width="1" stroke-dasharray="4 4"/><line x1="390" y1="180" x2="390" y2="248" stroke="#10b981" stroke-width="1" stroke-dasharray="4 4"/><text x="240" y="310" fill="#6b7280" font-size="11" font-weight="400" text-anchor="middle">A' ↔ B  et  B' ↔ A  (symétrie par rapport à O)</text>
</svg>