<svg xmlns="http://www.w3.org/2000/svg" width="480" height="340" font-family="Inter,Arial,sans-serif">
<rect width="480" height="340" fill="#f5f3ff" rx="12"/>
<rect x="10" y="10" width="42" height="23" rx="6" fill="#4f46e5"/>
<text x="31" y="25" fill="white" font-size="11" font-weight="700" text-anchor="middle">#53</text>
<rect x="80" y="55" width="320" height="240" rx="8" fill="white" stroke="#e0e7ff" stroke-width="1.5"/><text x="240" y="47" fill="#4f46e5" font-size="15" font-weight="700" text-anchor="middle">Programme de calcul</text><rect x="130" y="70" width="220" height="36" rx="8" fill="#3b82f6"/><text x="240" y="92" fill="white" font-size="12" font-weight="600" text-anchor="middle">Choisir un nombre x</text><line x1="240" y1="106" x2="240" y2="122" stroke="#6b7280" stroke-width="1.5"/><polygon points="240,122 236.0,114.0 244.0,114.0" fill="#6b7280"/><rect x="100" y="123" width="280" height="36" rx="8" fill="#4f46e5"/><text x="240" y="145" fill="white" font-size="12" font-weight="600" text-anchor="middle">Ajouter 3  →  x + 3</text><line x1="240" y1="159" x2="240" y2="175" stroke="#6b7280" stroke-width="1.5"/><polygon points="240,175 236.0,167.0 244.0,167.0" fill="#6b7280"/><rect x="80" y="176" width="320" height="36" rx="8" fill="#4f46e5"/><text x="240" y="198" fill="white" font-size="12" font-weight="600" text-anchor="middle">Multiplier par −2  →  (x+3)×(−2)</text><line x1="240" y1="212" x2="240" y2="228" stroke="#6b7280" stroke-width="1.5"/><polygon points="240,228 236.0,220.0 244.0,220.0" fill="#6b7280"/><rect x="100" y="229" width="280" height="36" rx="8" fill="#10b981"/><text x="240" y="251" fill="white" font-size="12" font-weight="600" text-anchor="middle">Afficher le résultat</text><rect x="80" y="302" width="320" height="28" rx="6" fill="#fef9c3" stroke="none"/><text x="240" y="320" fill="#92400e" font-size="12" font-weight="600" text-anchor="middle">Ex : x=5  →  (5+3)×(−2) = −16</text>
</svg>