<svg xmlns="http://www.w3.org/2000/svg" width="480" height="340" font-family="Inter,Arial,sans-serif">
<rect width="480" height="340" fill="#f5f3ff" rx="12"/>
<rect x="10" y="10" width="42" height="23" rx="6" fill="#4f46e5"/>
<text x="31" y="25" fill="white" font-size="11" font-weight="700" text-anchor="middle">#99</text>
<rect x="15" y="44" width="450" height="268" rx="8" fill="white" stroke="#e0e7ff" stroke-width="1.5"/><text x="240" y="38" fill="#4f46e5" font-size="15" font-weight="700" text-anchor="middle">Trois solides — volumes</text><polygon points="40,230 120,230 120,155 40,155" fill="#ede9fe" stroke="#4f46e5" stroke-width="2"/><line x1="40" y1="155" x2="65" y2="125" stroke="#4f46e5" stroke-width="1.5"/><line x1="120" y1="155" x2="145" y2="125" stroke="#4f46e5" stroke-width="1.5"/><line x1="120" y1="230" x2="145" y2="205" stroke="#4f46e5" stroke-width="1.5"/><line x1="65" y1="125" x2="145" y2="125" stroke="#4f46e5" stroke-width="2"/><line x1="145" y1="125" x2="145" y2="205" stroke="#4f46e5" stroke-width="2"/><line x1="145" y1="205" x2="120" y2="230" stroke="#4f46e5" stroke-width="2"/><text x="80" y="256" fill="#4f46e5" font-size="9" font-weight="700" text-anchor="middle">(A) Cube 4 cm</text><text x="80" y="268" fill="#10b981" font-size="9" font-weight="700" text-anchor="middle">V = ?</text><polygon points="175,230 295,230 295,165 175,165" fill="#fef9c3" stroke="#f59e0b" stroke-width="2"/><line x1="175" y1="165" x2="200" y2="145" stroke="#f59e0b" stroke-width="1.5"/><line x1="295" y1="165" x2="320" y2="145" stroke="#f59e0b" stroke-width="1.5"/><line x1="295" y1="230" x2="320" y2="210" stroke="#f59e0b" stroke-width="1.5"/><line x1="200" y1="145" x2="320" y2="145" stroke="#f59e0b" stroke-width="2"/><line x1="320" y1="145" x2="320" y2="210" stroke="#f59e0b" stroke-width="2"/><text x="235" y="252" fill="#b45309" font-size="9" font-weight="700" text-anchor="middle">(B) Pavé 5×3×6</text><text x="235" y="265" fill="#10b981" font-size="9" font-weight="700" text-anchor="middle">V = ?</text><polygon points="345,230 435,230 345,165" fill="#dcfce7" stroke="#10b981" stroke-width="2"/><line x1="345" y1="165" x2="365" y2="140" stroke="#10b981" stroke-width="1.5"/><line x1="345" y1="230" x2="365" y2="205" stroke="#10b981" stroke-width="1.5"/><line x1="435" y1="230" x2="455" y2="205" stroke="#10b981" stroke-width="1.5"/><line x1="365" y1="140" x2="455" y2="205" stroke="#10b981" stroke-width="2"/><line x1="455" y1="205" x2="435" y2="230" stroke="#10b981" stroke-width="2"/><text x="390" y="253" fill="#15803d" font-size="9" font-weight="700" text-anchor="middle">(C) Prisme trg</text><text x="390" y="265" fill="#10b981" font-size="8" font-weight="700" text-anchor="middle">V = ?</text>
</svg>