<svg xmlns="http://www.w3.org/2000/svg" width="480" height="340" font-family="Inter,Arial,sans-serif">
<rect width="480" height="340" fill="#f5f3ff" rx="12"/>
<rect x="10" y="10" width="42" height="23" rx="6" fill="#4f46e5"/>
<text x="31" y="25" fill="white" font-size="11" font-weight="700" text-anchor="middle">#98</text>
<rect x="120" y="48" width="240" height="268" rx="8" fill="white" stroke="#e0e7ff" stroke-width="1.5"/><text x="240" y="42" fill="#4f46e5" font-size="15" font-weight="700" text-anchor="middle">Nombres relatifs — altitudes</text><line x1="240" y1="292" x2="240" y2="52" stroke="#6b7280" stroke-width="1.5"/><polygon points="240,52 244.0,60.0 236.0,60.0" fill="#6b7280"/><text x="244" y="50" fill="#6b7280" font-size="11" font-weight="400" text-anchor="start">m</text><line x1="234" y1="80" x2="246" y2="80" stroke="#6b7280" stroke-width="1"/><text x="222" y="84" fill="#6b7280" font-size="9" font-weight="400" text-anchor="middle">50</text><line x1="234" y1="100" x2="246" y2="100" stroke="#6b7280" stroke-width="1"/><text x="222" y="104" fill="#6b7280" font-size="9" font-weight="400" text-anchor="middle">45</text><line x1="234" y1="120" x2="246" y2="120" stroke="#6b7280" stroke-width="1"/><text x="222" y="124" fill="#6b7280" font-size="9" font-weight="400" text-anchor="middle">40</text><line x1="234" y1="140" x2="246" y2="140" stroke="#6b7280" stroke-width="1"/><text x="222" y="144" fill="#6b7280" font-size="9" font-weight="400" text-anchor="middle">35</text><line x1="234" y1="160" x2="246" y2="160" stroke="#6b7280" stroke-width="1"/><text x="222" y="164" fill="#6b7280" font-size="9" font-weight="400" text-anchor="middle">30</text><line x1="234" y1="180" x2="246" y2="180" stroke="#6b7280" stroke-width="1"/><text x="222" y="184" fill="#6b7280" font-size="9" font-weight="400" text-anchor="middle">25</text><line x1="234" y1="200" x2="246" y2="200" stroke="#6b7280" stroke-width="1"/><text x="222" y="204" fill="#6b7280" font-size="9" font-weight="400" text-anchor="middle">20</text><line x1="234" y1="220" x2="246" y2="220" stroke="#6b7280" stroke-width="1"/><text x="222" y="224" fill="#6b7280" font-size="9" font-weight="400" text-anchor="middle">15</text><line x1="234" y1="240" x2="246" y2="240" stroke="#6b7280" stroke-width="1"/><text x="222" y="244" fill="#6b7280" font-size="9" font-weight="400" text-anchor="middle">10</text><line x1="234" y1="260" x2="246" y2="260" stroke="#6b7280" stroke-width="1"/><text x="222" y="264" fill="#6b7280" font-size="9" font-weight="400" text-anchor="middle">5</text><line x1="234" y1="280" x2="246" y2="280" stroke="#6b7280" stroke-width="1"/><text x="222" y="284" fill="#6b7280" font-size="9" font-weight="400" text-anchor="middle">0</text><line x1="234" y1="300" x2="246" y2="300" stroke="#6b7280" stroke-width="1"/><text x="222" y="304" fill="#6b7280" font-size="9" font-weight="400" text-anchor="middle">-5</text><line x1="120" y1="280" x2="360" y2="280" stroke="#3b82f6" stroke-width="2"/><text x="130" y="276" fill="#3b82f6" font-size="10" font-weight="700" text-anchor="start">Surface (0 m)</text><circle cx="240" cy="100" r="8" fill="#f59e0b" stroke="#f59e0b" stroke-width="0"/><text x="252" y="104" fill="#f59e0b" font-size="10" font-weight="700" text-anchor="start">Oiseau +45 m</text><circle cx="240" cy="322" r="8" fill="#ef4444" stroke="#ef4444" stroke-width="0"/><text x="252" y="326" fill="#ef4444" font-size="10" font-weight="700" text-anchor="start">Plongeur −12 m</text><text x="240" y="350" fill="#4f46e5" font-size="12" font-weight="700" text-anchor="middle">Écart = 45−(−12) = 57 m</text>
</svg>