<svg xmlns="http://www.w3.org/2000/svg" width="480" height="340" font-family="Inter,Arial,sans-serif">
<rect width="480" height="340" fill="#f5f3ff" rx="12"/>
<rect x="10" y="10" width="42" height="23" rx="6" fill="#4f46e5"/>
<text x="31" y="25" fill="white" font-size="11" font-weight="700" text-anchor="middle">#47</text>
<rect x="50" y="50" width="380" height="265" rx="8" fill="white" stroke="#e0e7ff" stroke-width="1.5"/><text x="240" y="44" fill="#4f46e5" font-size="15" font-weight="700" text-anchor="middle">Algorithme : périmètre rectangle</text><rect x="120" y="62" width="240" height="36" rx="8" fill="#3b82f6"/><text x="240" y="84" fill="white" font-size="12" font-weight="600" text-anchor="middle">Saisir longueur</text><line x1="240" y1="98" x2="240" y2="115" stroke="#6b7280" stroke-width="1.5"/><polygon points="240,115 236.0,107.0 244.0,107.0" fill="#6b7280"/><rect x="120" y="116" width="240" height="36" rx="8" fill="#3b82f6"/><text x="240" y="138" fill="white" font-size="12" font-weight="600" text-anchor="middle">Saisir largeur</text><line x1="240" y1="152" x2="240" y2="169" stroke="#6b7280" stroke-width="1.5"/><polygon points="240,169 236.0,161.0 244.0,161.0" fill="#6b7280"/><rect x="80" y="170" width="320" height="36" rx="8" fill="#4f46e5"/><text x="240" y="192" fill="white" font-size="12" font-weight="600" text-anchor="middle">P ← ?</text><line x1="240" y1="206" x2="240" y2="223" stroke="#6b7280" stroke-width="1.5"/><polygon points="240,223 236.0,215.0 244.0,215.0" fill="#6b7280"/><rect x="80" y="224" width="320" height="36" rx="8" fill="#10b981"/><text x="240" y="246" fill="white" font-size="12" font-weight="600" text-anchor="middle">Afficher "P = " + P</text></svg>