<svg xmlns="http://www.w3.org/2000/svg" width="480" height="340" font-family="Inter,Arial,sans-serif">
<rect width="480" height="340" fill="#f5f3ff" rx="12"/>
<rect x="10" y="10" width="42" height="23" rx="6" fill="#4f46e5"/>
<text x="31" y="25" fill="white" font-size="11" font-weight="700" text-anchor="middle">#05</text>
<rect x="30" y="55" width="420" height="260" rx="8" fill="white" stroke="#e0e7ff" stroke-width="1.5"/><text x="240" y="50" fill="#4f46e5" font-size="15" font-weight="700" text-anchor="middle">Translation : vecteur (3 ; 2)</text><line x1="40" y1="320" x2="460" y2="320" stroke="#e0e7ff" stroke-width="0.5"/><line x1="40" y1="60" x2="40" y2="310" stroke="#e5e7eb" stroke-width="0.5"/><line x1="70" y1="60" x2="70" y2="310" stroke="#e5e7eb" stroke-width="0.5"/><line x1="100" y1="60" x2="100" y2="310" stroke="#e5e7eb" stroke-width="0.5"/><line x1="130" y1="60" x2="130" y2="310" stroke="#e5e7eb" stroke-width="0.5"/><line x1="160" y1="60" x2="160" y2="310" stroke="#e5e7eb" stroke-width="0.5"/><line x1="190" y1="60" x2="190" y2="310" stroke="#e5e7eb" stroke-width="0.5"/><line x1="220" y1="60" x2="220" y2="310" stroke="#e5e7eb" stroke-width="0.5"/><line x1="250" y1="60" x2="250" y2="310" stroke="#e5e7eb" stroke-width="0.5"/><line x1="280" y1="60" x2="280" y2="310" stroke="#e5e7eb" stroke-width="0.5"/><line x1="310" y1="60" x2="310" y2="310" stroke="#e5e7eb" stroke-width="0.5"/><line x1="340" y1="60" x2="340" y2="310" stroke="#e5e7eb" stroke-width="0.5"/><line x1="370" y1="60" x2="370" y2="310" stroke="#e5e7eb" stroke-width="0.5"/><line x1="400" y1="60" x2="400" y2="310" stroke="#e5e7eb" stroke-width="0.5"/><line x1="430" y1="60" x2="430" y2="310" stroke="#e5e7eb" stroke-width="0.5"/><line x1="460" y1="60" x2="460" y2="310" stroke="#e5e7eb" stroke-width="0.5"/><line x1="40" y1="60" x2="460" y2="60" stroke="#e5e7eb" stroke-width="0.5"/><line x1="40" y1="90" x2="460" y2="90" stroke="#e5e7eb" stroke-width="0.5"/><line x1="40" y1="120" x2="460" y2="120" stroke="#e5e7eb" stroke-width="0.5"/><line x1="40" y1="150" x2="460" y2="150" stroke="#e5e7eb" stroke-width="0.5"/><line x1="40" y1="180" x2="460" y2="180" stroke="#e5e7eb" stroke-width="0.5"/><line x1="40" y1="210" x2="460" y2="210" stroke="#e5e7eb" stroke-width="0.5"/><line x1="40" y1="240" x2="460" y2="240" stroke="#e5e7eb" stroke-width="0.5"/><line x1="40" y1="270" x2="460" y2="270" stroke="#e5e7eb" stroke-width="0.5"/><line x1="40" y1="300" x2="460" y2="300" stroke="#e5e7eb" stroke-width="0.5"/><polygon points="70,280 130,280 100,190" fill="#ede9fe" stroke="#4f46e5" stroke-width="2"/><circle cx="70" cy="280" r="4" fill="#4f46e5"/><text x="54" y="280" fill="#4f46e5" font-size="12" font-weight="700">A</text><circle cx="130" cy="280" r="4" fill="#4f46e5"/><text x="135" y="280" fill="#4f46e5" font-size="12" font-weight="700">B</text><circle cx="100" cy="190" r="4" fill="#4f46e5"/><text x="105" y="184" fill="#4f46e5" font-size="12" font-weight="700">C</text><polygon points="160,220 220,220 190,130" fill="#dcfce7" stroke="#10b981" stroke-width="2"/><circle cx="160" cy="220" r="4" fill="#10b981"/><text x="142" y="220" fill="#10b981" font-size="12" font-weight="700">A'</text><circle cx="220" cy="220" r="4" fill="#10b981"/><text x="225" y="220" fill="#10b981" font-size="12" font-weight="700">B'</text><circle cx="190" cy="130" r="4" fill="#10b981"/><text x="195" y="124" fill="#10b981" font-size="12" font-weight="700">C'</text><line x1="70" y1="280" x2="160" y2="220" stroke="#f59e0b" stroke-width="1.5"/><polygon points="160,220 155.56239843019816,227.76580274715323 151.12479686039634,221.10940039245045" fill="#f59e0b"/><text x="100" y="244" fill="#f59e0b" font-size="18" font-weight="700" text-anchor="start">→</text><text x="116" y="244" fill="#6b7280" font-size="11" font-weight="400" text-anchor="start">vecteur</text>
</svg>