<svg xmlns="http://www.w3.org/2000/svg" width="480" height="340" font-family="Inter,Arial,sans-serif">
<rect width="480" height="340" fill="#f5f3ff" rx="12"/>
<rect x="10" y="10" width="42" height="23" rx="6" fill="#4f46e5"/>
<text x="31" y="25" fill="white" font-size="11" font-weight="700" text-anchor="middle">#70</text>
<rect x="40" y="50" width="400" height="265" rx="8" fill="white" stroke="#e0e7ff" stroke-width="1.5"/><text x="240" y="44" fill="#4f46e5" font-size="15" font-weight="700" text-anchor="middle">Vecteurs dans un repère</text><line x1="50" y1="220" x2="450" y2="220" stroke="#6b7280" stroke-width="1.5"/><polygon points="450,220 442.0,224.0 442.0,216.0" fill="#6b7280"/><line x1="70" y1="240" x2="70" y2="55" stroke="#6b7280" stroke-width="1.5"/><polygon points="70,55 74.0,63.0 66.0,63.0" fill="#6b7280"/><line x1="70" y1="60" x2="70" y2="220" stroke="#e5e7eb" stroke-width="0.5"/><line x1="125" y1="60" x2="125" y2="220" stroke="#e5e7eb" stroke-width="0.5"/><line x1="180" y1="60" x2="180" y2="220" stroke="#e5e7eb" stroke-width="0.5"/><line x1="235" y1="60" x2="235" y2="220" stroke="#e5e7eb" stroke-width="0.5"/><line x1="290" y1="60" x2="290" y2="220" stroke="#e5e7eb" stroke-width="0.5"/><line x1="345" y1="60" x2="345" y2="220" stroke="#e5e7eb" stroke-width="0.5"/><line x1="400" y1="60" x2="400" y2="220" stroke="#e5e7eb" stroke-width="0.5"/><line x1="455" y1="60" x2="455" y2="220" stroke="#e5e7eb" stroke-width="0.5"/><line x1="70" y1="220" x2="450" y2="220" stroke="#e5e7eb" stroke-width="0.5"/><line x1="70" y1="165" x2="450" y2="165" stroke="#e5e7eb" stroke-width="0.5"/><line x1="70" y1="110" x2="450" y2="110" stroke="#e5e7eb" stroke-width="0.5"/><line x1="70" y1="55" x2="450" y2="55" stroke="#e5e7eb" stroke-width="0.5"/><line x1="125" y1="220" x2="235" y2="55" stroke="#4f46e5" stroke-width="1.5"/><polygon points="235,55 233.89059960754955,63.87520313960366 227.23419725284677,59.437601569801835" fill="#4f46e5"/><text x="190" y="125" fill="#4f46e5" font-size="12" font-weight="700" text-anchor="start">u⃗(2;3)</text><line x1="125" y1="220" x2="70" y2="0" stroke="#ef4444" stroke-width="1.5"/><polygon points="70,0 75.82085500087199,6.790997501017323 68.05971499970933,8.731282501307987" fill="#ef4444"/><text x="60" y="105" fill="#ef4444" font-size="12" font-weight="700" text-anchor="start">v⃗(−1;4)</text><circle cx="125" cy="220" r="4" fill="#10b981"/><text x="129" y="232" fill="#10b981" font-size="12" font-weight="700">A</text><text x="240" y="298" fill="#6b7280" font-size="11" font-weight="400" text-anchor="middle">Vecteur = direction + sens + norme</text></svg>