<svg xmlns="http://www.w3.org/2000/svg" width="480" height="340" font-family="Inter,Arial,sans-serif">
<rect width="480" height="340" fill="#f5f3ff" rx="12"/>
<rect x="10" y="10" width="42" height="23" rx="6" fill="#4f46e5"/>
<text x="31" y="25" fill="white" font-size="11" font-weight="700" text-anchor="middle">#27</text>
<rect x="50" y="55" width="380" height="245" rx="8" fill="white" stroke="#e0e7ff" stroke-width="1.5"/><text x="240" y="47" fill="#4f46e5" font-size="15" font-weight="700" text-anchor="middle">Triangle équilatéral — médiatrices</text><polygon points="240,80 115,275 365,275" fill="#ede9fe" stroke="#4f46e5" stroke-width="2"/><circle cx="240" cy="80" r="4" fill="#4f46e5"/><text x="244" y="70" fill="#4f46e5" font-size="12" font-weight="700">A</text><circle cx="115" cy="275" r="4" fill="#4f46e5"/><text x="99" y="283" fill="#4f46e5" font-size="12" font-weight="700">B</text><circle cx="365" cy="275" r="4" fill="#4f46e5"/><text x="371" y="283" fill="#4f46e5" font-size="12" font-weight="700">C</text><line x1="240" y1="80" x2="240" y2="275" stroke="#ef4444" stroke-width="1" stroke-dasharray="4 4"/><line x1="115" y1="275" x2="302" y2="177" stroke="#3b82f6" stroke-width="1" stroke-dasharray="4 4"/><line x1="365" y1="275" x2="178" y2="177" stroke="#10b981" stroke-width="1" stroke-dasharray="4 4"/><circle cx="240" cy="211" r="4" fill="#6b7280"/><text x="248" y="211" fill="#6b7280" font-size="12" font-weight="700">K</text><circle cx="240" cy="211" r="64" fill="none" stroke="#818cf8" stroke-width="1"/><text x="240" y="322" fill="#6b7280" font-size="10" font-weight="400" text-anchor="middle">Les 3 médiatrices se croisent au centre du cercle circonscrit</text>
</svg>