<svg xmlns="http://www.w3.org/2000/svg" width="480" height="340" font-family="Inter,Arial,sans-serif">
<rect width="480" height="340" fill="#f5f3ff" rx="12"/>
<rect x="10" y="10" width="42" height="23" rx="6" fill="#4f46e5"/>
<text x="31" y="25" fill="white" font-size="11" font-weight="700" text-anchor="middle">#37</text>
<rect x="60" y="48" width="360" height="268" rx="8" fill="white" stroke="#e0e7ff" stroke-width="1.5"/><text x="240" y="42" fill="#4f46e5" font-size="15" font-weight="700" text-anchor="middle">Programme : Reçu ou Ajourné ?</text><rect x="140" y="60" width="200" height="34" rx="8" fill="#3b82f6"/><text x="240" y="81" fill="white" font-size="12" font-weight="600" text-anchor="middle">Saisir note (sur 20)</text><line x1="240" y1="94" x2="240" y2="113" stroke="#6b7280" stroke-width="1.5"/><polygon points="240,113 236.0,105.0 244.0,105.0" fill="#6b7280"/><rect x="125" y="114" width="230" height="38" rx="8" fill="#fef9c3" stroke="#f59e0b"/><text x="240" y="137" fill="#92400e" font-size="13" font-weight="700" text-anchor="middle">note ≥ 10 ?</text><line x1="124" y1="133" x2="60" y2="133" stroke="#6b7280" stroke-width="1.5"/><polygon points="60,133 68.0,129.0 68.0,137.0" fill="#6b7280"/><text x="62" y="126" fill="#6b7280" font-size="10" font-weight="400" text-anchor="start">Non</text><line x1="355" y1="133" x2="415" y2="133" stroke="#6b7280" stroke-width="1.5"/><polygon points="415,133 407.0,137.0 407.0,129.0" fill="#6b7280"/><text x="357" y="126" fill="#6b7280" font-size="10" font-weight="400" text-anchor="start">Oui</text><rect x="10" y="125" width="52" height="32" rx="8" fill="#ef4444"/><text x="36" y="145" fill="white" font-size="12" font-weight="600" text-anchor="middle">Ajourné</text><rect x="358" y="125" width="100" height="32" rx="8" fill="#10b981"/><text x="408" y="145" fill="white" font-size="12" font-weight="600" text-anchor="middle">"Reçu"</text><line x1="36" y1="157" x2="36" y2="195" stroke="#ef4444" stroke-width="1"/><line x1="408" y1="157" x2="408" y2="195" stroke="#10b981" stroke-width="1"/><line x1="36" y1="195" x2="408" y2="195" stroke="#6b7280" stroke-width="1"/><line x1="240" y1="195" x2="240" y2="214" stroke="#6b7280" stroke-width="1.5"/><polygon points="240,214 236.0,206.0 244.0,206.0" fill="#6b7280"/><rect x="105" y="215" width="270" height="34" rx="8" fill="#4f46e5"/><text x="240" y="236" fill="white" font-size="12" font-weight="600" text-anchor="middle">Afficher résultat</text>
</svg>