<svg xmlns="http://www.w3.org/2000/svg" width="480" height="340" font-family="Inter,Arial,sans-serif">
<rect width="480" height="340" fill="#f5f3ff" rx="12"/>
<rect x="10" y="10" width="42" height="23" rx="6" fill="#4f46e5"/>
<text x="31" y="25" fill="white" font-size="11" font-weight="700" text-anchor="middle">#87</text>
<rect x="50" y="55" width="380" height="240" rx="8" fill="white" stroke="#e0e7ff" stroke-width="1.5"/><text x="240" y="47" fill="#4f46e5" font-size="15" font-weight="700" text-anchor="middle">Parallélogramme — diagonales</text><polygon points="90,245 290,245 390,120 190,120" fill="#ede9fe" stroke="#4f46e5" stroke-width="2"/><circle cx="90" cy="245" r="4" fill="#4f46e5"/><text x="74" y="253" fill="#4f46e5" font-size="12" font-weight="700">A</text><circle cx="290" cy="245" r="4" fill="#4f46e5"/><text x="296" y="253" fill="#4f46e5" font-size="12" font-weight="700">B</text><circle cx="390" cy="120" r="4" fill="#4f46e5"/><text x="396" y="112" fill="#4f46e5" font-size="12" font-weight="700">C</text><circle cx="190" cy="120" r="4" fill="#4f46e5"/><text x="174" y="112" fill="#4f46e5" font-size="12" font-weight="700">D</text><line x1="90" y1="245" x2="390" y2="120" stroke="#ef4444" stroke-width="1.5"/><line x1="290" y1="245" x2="190" y2="120" stroke="#10b981" stroke-width="1.5"/><circle cx="240" cy="182" r="4" fill="#6b7280"/><text x="246" y="176" fill="#6b7280" font-size="12" font-weight="700">I</text><text x="240" y="225" fill="#4f46e5" font-size="11" font-weight="600" text-anchor="middle">AB=7 cm, BC=4 cm</text><rect x="50" y="278" width="380" height="28" rx="6" fill="#dcfce7" stroke="none"/><text x="240" y="297" fill="#15803d" font-size="12" font-weight="600" text-anchor="middle">Les diagonales se coupent en leur milieu I</text>
</svg>