<svg xmlns="http://www.w3.org/2000/svg" width="480" height="340" font-family="Inter,Arial,sans-serif">
<rect width="480" height="340" fill="#f5f3ff" rx="12"/>
<rect x="10" y="10" width="42" height="23" rx="6" fill="#4f46e5"/>
<text x="31" y="25" fill="white" font-size="11" font-weight="700" text-anchor="middle">#73</text>
<rect x="40" y="50" width="400" height="268" rx="8" fill="white" stroke="#e0e7ff" stroke-width="1.5"/><text x="240" y="44" fill="#4f46e5" font-size="15" font-weight="700" text-anchor="middle">Boucle TANT QUE (conditionnelle)</text><rect x="140" y="62" width="200" height="34" rx="8" fill="#3b82f6"/><text x="240" y="83" fill="white" font-size="12" font-weight="600" text-anchor="middle">n ← 1</text><line x1="240" y1="96" x2="240" y2="113" stroke="#6b7280" stroke-width="1.5"/><polygon points="240,113 236.0,105.0 244.0,105.0" fill="#6b7280"/><rect x="110" y="114" width="260" height="40" rx="8" fill="#fef9c3" stroke="#f59e0b"/><text x="240" y="138" fill="#92400e" font-size="13" font-weight="700" text-anchor="middle">n ≤ 5 ?</text><line x1="370" y1="134" x2="425" y2="134" stroke="#6b7280" stroke-width="1.5"/><polygon points="425,134 417.0,138.0 417.0,130.0" fill="#6b7280"/><text x="427" y="128" fill="#6b7280" font-size="10" font-weight="400" text-anchor="start">Non</text><rect x="387" y="118" width="70" height="32" rx="8" fill="#ef4444"/><text x="422" y="138" fill="white" font-size="12" font-weight="600" text-anchor="middle">Stop</text><line x1="240" y1="154" x2="240" y2="171" stroke="#6b7280" stroke-width="1.5"/><polygon points="240,171 236.0,163.0 244.0,163.0" fill="#6b7280"/><text x="248" y="166" fill="#6b7280" font-size="10" font-weight="400" text-anchor="start">Oui</text><rect x="100" y="172" width="280" height="34" rx="8" fill="#10b981"/><text x="240" y="193" fill="white" font-size="12" font-weight="600" text-anchor="middle">Afficher n</text><line x1="240" y1="206" x2="240" y2="222" stroke="#6b7280" stroke-width="1.5"/><polygon points="240,222 236.0,214.0 244.0,214.0" fill="#6b7280"/><rect x="100" y="223" width="280" height="34" rx="8" fill="#4f46e5"/><text x="240" y="244" fill="white" font-size="12" font-weight="600" text-anchor="middle">n ← n + 1</text><path d="M 380,240 Q 430,240 430,133" fill="none" stroke="#6b7280" stroke-width="1.5" stroke-dasharray="4 4"/></svg>