<svg xmlns="http://www.w3.org/2000/svg" width="480" height="340" font-family="Inter,Arial,sans-serif">
<rect width="480" height="340" fill="#f5f3ff" rx="12"/>
<rect x="10" y="10" width="42" height="23" rx="6" fill="#4f46e5"/>
<text x="31" y="25" fill="white" font-size="11" font-weight="700" text-anchor="middle">#77</text>
<rect x="50" y="60" width="380" height="230" rx="8" fill="white" stroke="#e0e7ff" stroke-width="1.5"/><text x="240" y="52" fill="#4f46e5" font-size="15" font-weight="700" text-anchor="middle">Construction d'un parallélogramme</text><polygon points="100,230 250,230 310,100 160,100" fill="#ede9fe" stroke="#4f46e5" stroke-width="2"/><circle cx="100" cy="230" r="4" fill="#4f46e5"/><text x="84" y="240" fill="#4f46e5" font-size="12" font-weight="700">A</text><circle cx="250" cy="230" r="4" fill="#4f46e5"/><text x="256" y="240" fill="#4f46e5" font-size="12" font-weight="700">B</text><circle cx="310" cy="100" r="4" fill="#4f46e5"/><text x="316" y="92" fill="#4f46e5" font-size="12" font-weight="700">C</text><circle cx="160" cy="100" r="4" fill="#4f46e5"/><text x="144" y="92" fill="#4f46e5" font-size="12" font-weight="700">D</text><path d="M 125,230 A 25,25 0 0,0 113,208" fill="none" stroke="#f59e0b" stroke-width="2"/><text x="128" y="218" fill="#f59e0b" font-size="11" font-weight="700" text-anchor="start">60°</text><text x="175" y="245" fill="#4f46e5" font-size="11" font-weight="600" text-anchor="middle">AB = 5 cm</text><text x="120" y="165" fill="#6b7280" font-size="11" font-weight="600" text-anchor="start">AD = 3 cm</text><text x="240" y="305" fill="#15803d" font-size="12" font-weight="600" text-anchor="middle">AB ∥ DC  et  AD ∥ BC</text>
</svg>